<mxfile host="Electron" modified="2023-09-21T17:23:18.332Z" agent="Mozilla/5.0 (Windows NT 10.0; Win64; x64) AppleWebKit/537.36 (KHTML, like Gecko) draw.io/21.7.5 Chrome/114.0.5735.289 Electron/25.8.1 Safari/537.36" etag="d70lPUjyfGX1rBP-6yO_" version="21.7.5" type="device">
  <diagram id="Fqjd-lwi6O4fydthMyqD" name="Page-1">
    <mxGraphModel dx="2412" dy="1634" grid="1" gridSize="10" guides="1" tooltips="1" connect="1" arrows="1" fold="1" page="1" pageScale="1" pageWidth="827" pageHeight="1169" math="0" shadow="0">
      <root>
        <mxCell id="0" />
        <mxCell id="1" parent="0" />
        <mxCell id="O63N4iiG2ohLLesopTnp-6" style="edgeStyle=orthogonalEdgeStyle;rounded=0;orthogonalLoop=1;jettySize=auto;html=1;exitX=1;exitY=1;exitDx=0;exitDy=0;endArrow=none;endFill=0;fillColor=#ffe6cc;strokeColor=#d79b00;" parent="1" source="O63N4iiG2ohLLesopTnp-1" edge="1">
          <mxGeometry relative="1" as="geometry">
            <mxPoint x="200" y="3640" as="targetPoint" />
            <Array as="points">
              <mxPoint x="200" y="170" />
              <mxPoint x="200" y="170" />
            </Array>
          </mxGeometry>
        </mxCell>
        <mxCell id="O63N4iiG2ohLLesopTnp-1" value="Организационная единица" style="shape=partialRectangle;html=1;top=1;align=center;" parent="1" vertex="1">
          <mxGeometry width="200" height="20" as="geometry" />
        </mxCell>
        <mxCell id="O63N4iiG2ohLLesopTnp-2" value="Структурное подразделение" style="shape=partialRectangle;html=1;top=1;align=center;" parent="1" vertex="1">
          <mxGeometry x="200" width="200" height="20" as="geometry" />
        </mxCell>
        <mxCell id="O63N4iiG2ohLLesopTnp-7" style="edgeStyle=orthogonalEdgeStyle;rounded=0;orthogonalLoop=1;jettySize=auto;html=1;endArrow=none;endFill=0;exitX=1;exitY=1;exitDx=0;exitDy=0;fillColor=#ffe6cc;strokeColor=#d79b00;" parent="1" edge="1" source="O63N4iiG2ohLLesopTnp-2">
          <mxGeometry relative="1" as="geometry">
            <mxPoint x="400" y="3640" as="targetPoint" />
            <mxPoint x="360" y="20" as="sourcePoint" />
            <Array as="points">
              <mxPoint x="400" y="310" />
              <mxPoint x="400" y="310" />
            </Array>
          </mxGeometry>
        </mxCell>
        <mxCell id="O63N4iiG2ohLLesopTnp-10" style="edgeStyle=orthogonalEdgeStyle;rounded=0;orthogonalLoop=1;jettySize=auto;html=1;exitX=1;exitY=1;exitDx=0;exitDy=0;endArrow=none;endFill=0;fillColor=#ffe6cc;strokeColor=#d79b00;" parent="1" edge="1">
          <mxGeometry relative="1" as="geometry">
            <mxPoint y="3640" as="targetPoint" />
            <mxPoint y="20" as="sourcePoint" />
          </mxGeometry>
        </mxCell>
        <mxCell id="8MZUT5X9iETPe_T3ZnxR-1" value="Должность" style="shape=partialRectangle;html=1;top=1;align=center;" parent="1" vertex="1">
          <mxGeometry x="400" width="360" height="20" as="geometry" />
        </mxCell>
        <mxCell id="8MZUT5X9iETPe_T3ZnxR-2" value="ФИО" style="shape=partialRectangle;html=1;top=1;align=center;" parent="1" vertex="1">
          <mxGeometry x="760" width="360" height="20" as="geometry" />
        </mxCell>
        <mxCell id="8MZUT5X9iETPe_T3ZnxR-5" value="" style="endArrow=none;html=1;rounded=0;entryX=1;entryY=1;entryDx=0;entryDy=0;fillColor=#ffe6cc;strokeColor=#d79b00;" parent="1" target="8MZUT5X9iETPe_T3ZnxR-2" edge="1">
          <mxGeometry width="50" height="50" relative="1" as="geometry">
            <mxPoint x="1120" y="3640" as="sourcePoint" />
            <mxPoint x="660" y="20" as="targetPoint" />
          </mxGeometry>
        </mxCell>
        <mxCell id="8MZUT5X9iETPe_T3ZnxR-6" value="" style="endArrow=none;html=1;rounded=0;entryX=1;entryY=1;entryDx=0;entryDy=0;fillColor=#ffe6cc;strokeColor=#d79b00;" parent="1" target="8MZUT5X9iETPe_T3ZnxR-1" edge="1">
          <mxGeometry width="50" height="50" relative="1" as="geometry">
            <mxPoint x="760" y="3640" as="sourcePoint" />
            <mxPoint x="440" y="200" as="targetPoint" />
          </mxGeometry>
        </mxCell>
        <mxCell id="GxfZMPhV7cBYfeG6iRfb-1" value="Отдел кадров" style="rounded=0;whiteSpace=wrap;html=1;" vertex="1" parent="1">
          <mxGeometry x="40" y="60" width="120" height="60" as="geometry" />
        </mxCell>
        <mxCell id="GxfZMPhV7cBYfeG6iRfb-9" value="" style="edgeStyle=orthogonalEdgeStyle;rounded=0;orthogonalLoop=1;jettySize=auto;html=1;endArrow=none;endFill=0;" edge="1" parent="1" source="GxfZMPhV7cBYfeG6iRfb-2" target="GxfZMPhV7cBYfeG6iRfb-3">
          <mxGeometry relative="1" as="geometry" />
        </mxCell>
        <mxCell id="GxfZMPhV7cBYfeG6iRfb-2" value="Бухгалтерия" style="rounded=0;whiteSpace=wrap;html=1;" vertex="1" parent="1">
          <mxGeometry x="40" y="370" width="120" height="60" as="geometry" />
        </mxCell>
        <mxCell id="GxfZMPhV7cBYfeG6iRfb-10" value="" style="edgeStyle=orthogonalEdgeStyle;rounded=0;orthogonalLoop=1;jettySize=auto;html=1;endArrow=none;endFill=0;" edge="1" parent="1" source="GxfZMPhV7cBYfeG6iRfb-3" target="GxfZMPhV7cBYfeG6iRfb-4">
          <mxGeometry relative="1" as="geometry" />
        </mxCell>
        <mxCell id="GxfZMPhV7cBYfeG6iRfb-3" value="Общий отдел" style="rounded=0;whiteSpace=wrap;html=1;" vertex="1" parent="1">
          <mxGeometry x="40" y="750" width="120" height="60" as="geometry" />
        </mxCell>
        <mxCell id="GxfZMPhV7cBYfeG6iRfb-11" value="" style="edgeStyle=orthogonalEdgeStyle;rounded=0;orthogonalLoop=1;jettySize=auto;html=1;endArrow=none;endFill=0;" edge="1" parent="1" source="GxfZMPhV7cBYfeG6iRfb-4" target="GxfZMPhV7cBYfeG6iRfb-5">
          <mxGeometry relative="1" as="geometry" />
        </mxCell>
        <mxCell id="GxfZMPhV7cBYfeG6iRfb-4" value="Управление жкх" style="rounded=0;whiteSpace=wrap;html=1;" vertex="1" parent="1">
          <mxGeometry x="40" y="1190" width="120" height="60" as="geometry" />
        </mxCell>
        <mxCell id="GxfZMPhV7cBYfeG6iRfb-12" value="" style="edgeStyle=orthogonalEdgeStyle;rounded=0;orthogonalLoop=1;jettySize=auto;html=1;endArrow=none;endFill=0;" edge="1" parent="1" source="GxfZMPhV7cBYfeG6iRfb-5" target="GxfZMPhV7cBYfeG6iRfb-6">
          <mxGeometry relative="1" as="geometry" />
        </mxCell>
        <mxCell id="GxfZMPhV7cBYfeG6iRfb-5" value="Финансово-экономический отдел" style="rounded=0;whiteSpace=wrap;html=1;" vertex="1" parent="1">
          <mxGeometry x="40" y="2750" width="120" height="60" as="geometry" />
        </mxCell>
        <mxCell id="GxfZMPhV7cBYfeG6iRfb-13" value="" style="edgeStyle=orthogonalEdgeStyle;rounded=0;orthogonalLoop=1;jettySize=auto;html=1;endArrow=none;endFill=0;" edge="1" parent="1" source="GxfZMPhV7cBYfeG6iRfb-6" target="GxfZMPhV7cBYfeG6iRfb-7">
          <mxGeometry relative="1" as="geometry" />
        </mxCell>
        <mxCell id="GxfZMPhV7cBYfeG6iRfb-6" value="Отдел по благоустройству" style="rounded=0;whiteSpace=wrap;html=1;" vertex="1" parent="1">
          <mxGeometry x="40" y="2969" width="120" height="60" as="geometry" />
        </mxCell>
        <mxCell id="GxfZMPhV7cBYfeG6iRfb-7" value="Правовое управление" style="rounded=0;whiteSpace=wrap;html=1;" vertex="1" parent="1">
          <mxGeometry x="40" y="3470" width="120" height="60" as="geometry" />
        </mxCell>
        <mxCell id="GxfZMPhV7cBYfeG6iRfb-8" value="" style="endArrow=none;html=1;rounded=0;entryX=0.5;entryY=1;entryDx=0;entryDy=0;exitX=0.5;exitY=0;exitDx=0;exitDy=0;" edge="1" parent="1" source="GxfZMPhV7cBYfeG6iRfb-2" target="GxfZMPhV7cBYfeG6iRfb-1">
          <mxGeometry width="50" height="50" relative="1" as="geometry">
            <mxPoint x="100" y="200" as="sourcePoint" />
            <mxPoint x="150" y="150" as="targetPoint" />
          </mxGeometry>
        </mxCell>
        <mxCell id="GxfZMPhV7cBYfeG6iRfb-14" value="ПТО" style="rounded=0;whiteSpace=wrap;html=1;" vertex="1" parent="1">
          <mxGeometry x="240" y="1034" width="120" height="60" as="geometry" />
        </mxCell>
        <mxCell id="GxfZMPhV7cBYfeG6iRfb-15" value="ОДС" style="rounded=0;whiteSpace=wrap;html=1;" vertex="1" parent="1">
          <mxGeometry x="240" y="1185" width="120" height="60" as="geometry" />
        </mxCell>
        <mxCell id="GxfZMPhV7cBYfeG6iRfb-16" value="АДС" style="rounded=0;whiteSpace=wrap;html=1;" vertex="1" parent="1">
          <mxGeometry x="250" y="1795" width="120" height="60" as="geometry" />
        </mxCell>
        <mxCell id="GxfZMPhV7cBYfeG6iRfb-17" value="Отдел контроля энергосбережения" style="rounded=0;whiteSpace=wrap;html=1;" vertex="1" parent="1">
          <mxGeometry x="240" y="2495" width="120" height="60" as="geometry" />
        </mxCell>
        <mxCell id="GxfZMPhV7cBYfeG6iRfb-21" value="" style="endArrow=none;html=1;rounded=0;exitX=1;exitY=0.5;exitDx=0;exitDy=0;entryX=0;entryY=0.5;entryDx=0;entryDy=0;" edge="1" parent="1" source="GxfZMPhV7cBYfeG6iRfb-4" target="GxfZMPhV7cBYfeG6iRfb-17">
          <mxGeometry width="50" height="50" relative="1" as="geometry">
            <mxPoint x="220" y="1334" as="sourcePoint" />
            <mxPoint x="240" y="2010" as="targetPoint" />
            <Array as="points">
              <mxPoint x="220" y="1219" />
              <mxPoint x="220" y="1364" />
              <mxPoint x="220" y="2010" />
              <mxPoint x="220" y="2335" />
              <mxPoint x="220" y="2525" />
            </Array>
          </mxGeometry>
        </mxCell>
        <mxCell id="GxfZMPhV7cBYfeG6iRfb-22" value="Юридический отдел" style="rounded=0;whiteSpace=wrap;html=1;" vertex="1" parent="1">
          <mxGeometry x="240" y="3390" width="120" height="60" as="geometry" />
        </mxCell>
        <mxCell id="GxfZMPhV7cBYfeG6iRfb-23" value="Договорной отдел" style="rounded=0;whiteSpace=wrap;html=1;" vertex="1" parent="1">
          <mxGeometry x="240" y="3560" width="120" height="60" as="geometry" />
        </mxCell>
        <mxCell id="GxfZMPhV7cBYfeG6iRfb-24" value="" style="endArrow=none;html=1;rounded=0;exitX=1;exitY=0.5;exitDx=0;exitDy=0;entryX=0;entryY=0.5;entryDx=0;entryDy=0;" edge="1" parent="1" source="GxfZMPhV7cBYfeG6iRfb-7" target="GxfZMPhV7cBYfeG6iRfb-22">
          <mxGeometry width="50" height="50" relative="1" as="geometry">
            <mxPoint x="190" y="3520" as="sourcePoint" />
            <mxPoint x="240" y="3470" as="targetPoint" />
            <Array as="points">
              <mxPoint x="220" y="3500" />
              <mxPoint x="220" y="3460" />
              <mxPoint x="220" y="3420" />
            </Array>
          </mxGeometry>
        </mxCell>
        <mxCell id="GxfZMPhV7cBYfeG6iRfb-25" value="" style="endArrow=none;html=1;rounded=0;entryX=0;entryY=0.5;entryDx=0;entryDy=0;exitX=1;exitY=0.5;exitDx=0;exitDy=0;" edge="1" parent="1" source="GxfZMPhV7cBYfeG6iRfb-7" target="GxfZMPhV7cBYfeG6iRfb-23">
          <mxGeometry width="50" height="50" relative="1" as="geometry">
            <mxPoint x="200" y="3530" as="sourcePoint" />
            <mxPoint x="250" y="3480" as="targetPoint" />
            <Array as="points">
              <mxPoint x="220" y="3500" />
              <mxPoint x="220" y="3550" />
              <mxPoint x="220" y="3590" />
            </Array>
          </mxGeometry>
        </mxCell>
        <mxCell id="GxfZMPhV7cBYfeG6iRfb-27" value="Начальник отдела кадров" style="rounded=0;whiteSpace=wrap;html=1;" vertex="1" parent="1">
          <mxGeometry x="520" y="120" width="120" height="30" as="geometry" />
        </mxCell>
        <mxCell id="GxfZMPhV7cBYfeG6iRfb-29" value="Зам. начальника отдела кадров" style="rounded=0;whiteSpace=wrap;html=1;" vertex="1" parent="1">
          <mxGeometry x="520" y="170" width="120" height="30" as="geometry" />
        </mxCell>
        <mxCell id="GxfZMPhV7cBYfeG6iRfb-32" value="Менеджер по персоналу" style="rounded=0;whiteSpace=wrap;html=1;" vertex="1" parent="1">
          <mxGeometry x="520" y="220" width="120" height="30" as="geometry" />
        </mxCell>
        <mxCell id="GxfZMPhV7cBYfeG6iRfb-33" value="Специалист по кадровому делопроизводству" style="rounded=0;whiteSpace=wrap;html=1;" vertex="1" parent="1">
          <mxGeometry x="520" y="260" width="120" height="50" as="geometry" />
        </mxCell>
        <mxCell id="GxfZMPhV7cBYfeG6iRfb-37" value="Генеральный деректор" style="rounded=0;whiteSpace=wrap;html=1;" vertex="1" parent="1">
          <mxGeometry x="520" y="30" width="120" height="30" as="geometry" />
        </mxCell>
        <mxCell id="GxfZMPhV7cBYfeG6iRfb-39" value="Сидорова Л.Н" style="rounded=0;whiteSpace=wrap;html=1;" vertex="1" parent="1">
          <mxGeometry x="880" y="120" width="120" height="30" as="geometry" />
        </mxCell>
        <mxCell id="GxfZMPhV7cBYfeG6iRfb-40" value="Крюкова Т.Н." style="rounded=0;whiteSpace=wrap;html=1;" vertex="1" parent="1">
          <mxGeometry x="880" y="170" width="120" height="30" as="geometry" />
        </mxCell>
        <mxCell id="GxfZMPhV7cBYfeG6iRfb-41" value="Малыгина К.Т." style="rounded=0;whiteSpace=wrap;html=1;" vertex="1" parent="1">
          <mxGeometry x="880" y="220" width="120" height="30" as="geometry" />
        </mxCell>
        <mxCell id="GxfZMPhV7cBYfeG6iRfb-42" value="Светлова Т.Н." style="rounded=0;whiteSpace=wrap;html=1;" vertex="1" parent="1">
          <mxGeometry x="880" y="270" width="120" height="30" as="geometry" />
        </mxCell>
        <mxCell id="GxfZMPhV7cBYfeG6iRfb-43" value="" style="endArrow=none;html=1;rounded=0;exitX=1;exitY=0.5;exitDx=0;exitDy=0;entryX=0;entryY=0.5;entryDx=0;entryDy=0;" edge="1" parent="1" source="GxfZMPhV7cBYfeG6iRfb-27" target="GxfZMPhV7cBYfeG6iRfb-39">
          <mxGeometry width="50" height="50" relative="1" as="geometry">
            <mxPoint x="700" y="160" as="sourcePoint" />
            <mxPoint x="750" y="110" as="targetPoint" />
          </mxGeometry>
        </mxCell>
        <mxCell id="GxfZMPhV7cBYfeG6iRfb-44" value="" style="endArrow=none;html=1;rounded=0;exitX=1;exitY=0.5;exitDx=0;exitDy=0;entryX=0;entryY=0.5;entryDx=0;entryDy=0;" edge="1" parent="1" source="GxfZMPhV7cBYfeG6iRfb-29" target="GxfZMPhV7cBYfeG6iRfb-40">
          <mxGeometry width="50" height="50" relative="1" as="geometry">
            <mxPoint x="650" y="145" as="sourcePoint" />
            <mxPoint x="810" y="145" as="targetPoint" />
          </mxGeometry>
        </mxCell>
        <mxCell id="GxfZMPhV7cBYfeG6iRfb-45" value="" style="endArrow=none;html=1;rounded=0;exitX=1;exitY=0.5;exitDx=0;exitDy=0;entryX=0;entryY=0.5;entryDx=0;entryDy=0;" edge="1" parent="1" source="GxfZMPhV7cBYfeG6iRfb-32" target="GxfZMPhV7cBYfeG6iRfb-41">
          <mxGeometry width="50" height="50" relative="1" as="geometry">
            <mxPoint x="650" y="195" as="sourcePoint" />
            <mxPoint x="810" y="195" as="targetPoint" />
          </mxGeometry>
        </mxCell>
        <mxCell id="GxfZMPhV7cBYfeG6iRfb-46" value="" style="endArrow=none;html=1;rounded=0;exitX=1;exitY=0.5;exitDx=0;exitDy=0;entryX=0;entryY=0.5;entryDx=0;entryDy=0;" edge="1" parent="1" source="GxfZMPhV7cBYfeG6iRfb-33" target="GxfZMPhV7cBYfeG6iRfb-42">
          <mxGeometry width="50" height="50" relative="1" as="geometry">
            <mxPoint x="650" y="245" as="sourcePoint" />
            <mxPoint x="810" y="245" as="targetPoint" />
          </mxGeometry>
        </mxCell>
        <mxCell id="GxfZMPhV7cBYfeG6iRfb-48" value="Гл. бухгалтер" style="rounded=0;whiteSpace=wrap;html=1;" vertex="1" parent="1">
          <mxGeometry x="520" y="430" width="120" height="30" as="geometry" />
        </mxCell>
        <mxCell id="GxfZMPhV7cBYfeG6iRfb-49" value="Зам. гл. бухгалтера" style="rounded=0;whiteSpace=wrap;html=1;" vertex="1" parent="1">
          <mxGeometry x="520" y="480" width="120" height="30" as="geometry" />
        </mxCell>
        <mxCell id="GxfZMPhV7cBYfeG6iRfb-50" value="Ст. бухгалтер" style="rounded=0;whiteSpace=wrap;html=1;" vertex="1" parent="1">
          <mxGeometry x="520" y="530" width="120" height="30" as="geometry" />
        </mxCell>
        <mxCell id="GxfZMPhV7cBYfeG6iRfb-51" value="Кассир" style="rounded=0;whiteSpace=wrap;html=1;" vertex="1" parent="1">
          <mxGeometry x="520" y="580" width="120" height="30" as="geometry" />
        </mxCell>
        <mxCell id="GxfZMPhV7cBYfeG6iRfb-55" value="Петрова Н.Н." style="rounded=0;whiteSpace=wrap;html=1;" vertex="1" parent="1">
          <mxGeometry x="880" y="430" width="120" height="30" as="geometry" />
        </mxCell>
        <mxCell id="GxfZMPhV7cBYfeG6iRfb-56" value="Филиппова Г.К." style="rounded=0;whiteSpace=wrap;html=1;" vertex="1" parent="1">
          <mxGeometry x="880" y="480" width="120" height="30" as="geometry" />
        </mxCell>
        <mxCell id="GxfZMPhV7cBYfeG6iRfb-57" value="Федорова С.Ю." style="rounded=0;whiteSpace=wrap;html=1;" vertex="1" parent="1">
          <mxGeometry x="880" y="530" width="120" height="30" as="geometry" />
        </mxCell>
        <mxCell id="GxfZMPhV7cBYfeG6iRfb-58" value="Захарова С.Ю." style="rounded=0;whiteSpace=wrap;html=1;" vertex="1" parent="1">
          <mxGeometry x="880" y="580" width="120" height="30" as="geometry" />
        </mxCell>
        <mxCell id="GxfZMPhV7cBYfeG6iRfb-59" value="" style="endArrow=none;html=1;rounded=0;exitX=1;exitY=0.5;exitDx=0;exitDy=0;entryX=0;entryY=0.5;entryDx=0;entryDy=0;" edge="1" parent="1" source="GxfZMPhV7cBYfeG6iRfb-48" target="GxfZMPhV7cBYfeG6iRfb-55">
          <mxGeometry width="50" height="50" relative="1" as="geometry">
            <mxPoint x="700" y="470" as="sourcePoint" />
            <mxPoint x="750" y="420" as="targetPoint" />
          </mxGeometry>
        </mxCell>
        <mxCell id="GxfZMPhV7cBYfeG6iRfb-60" value="" style="endArrow=none;html=1;rounded=0;exitX=1;exitY=0.5;exitDx=0;exitDy=0;entryX=0;entryY=0.5;entryDx=0;entryDy=0;" edge="1" parent="1" source="GxfZMPhV7cBYfeG6iRfb-49" target="GxfZMPhV7cBYfeG6iRfb-56">
          <mxGeometry width="50" height="50" relative="1" as="geometry">
            <mxPoint x="650" y="455" as="sourcePoint" />
            <mxPoint x="810" y="455" as="targetPoint" />
          </mxGeometry>
        </mxCell>
        <mxCell id="GxfZMPhV7cBYfeG6iRfb-61" value="" style="endArrow=none;html=1;rounded=0;exitX=1;exitY=0.5;exitDx=0;exitDy=0;entryX=0;entryY=0.5;entryDx=0;entryDy=0;" edge="1" parent="1" source="GxfZMPhV7cBYfeG6iRfb-50" target="GxfZMPhV7cBYfeG6iRfb-57">
          <mxGeometry width="50" height="50" relative="1" as="geometry">
            <mxPoint x="650" y="505" as="sourcePoint" />
            <mxPoint x="810" y="505" as="targetPoint" />
          </mxGeometry>
        </mxCell>
        <mxCell id="GxfZMPhV7cBYfeG6iRfb-62" value="" style="endArrow=none;html=1;rounded=0;exitX=1;exitY=0.5;exitDx=0;exitDy=0;entryX=0;entryY=0.5;entryDx=0;entryDy=0;" edge="1" parent="1" source="GxfZMPhV7cBYfeG6iRfb-51" target="GxfZMPhV7cBYfeG6iRfb-58">
          <mxGeometry width="50" height="50" relative="1" as="geometry">
            <mxPoint x="650" y="555" as="sourcePoint" />
            <mxPoint x="810" y="555" as="targetPoint" />
          </mxGeometry>
        </mxCell>
        <mxCell id="GxfZMPhV7cBYfeG6iRfb-72" value="Начальник общего отдела" style="rounded=0;whiteSpace=wrap;html=1;" vertex="1" parent="1">
          <mxGeometry x="520" y="715" width="120" height="30" as="geometry" />
        </mxCell>
        <mxCell id="GxfZMPhV7cBYfeG6iRfb-73" value="Специалист по делопроизводству" style="rounded=0;whiteSpace=wrap;html=1;" vertex="1" parent="1">
          <mxGeometry x="520" y="765" width="120" height="30" as="geometry" />
        </mxCell>
        <mxCell id="GxfZMPhV7cBYfeG6iRfb-74" value="Специалист по рекламе и PR" style="rounded=0;whiteSpace=wrap;html=1;" vertex="1" parent="1">
          <mxGeometry x="520" y="815" width="120" height="30" as="geometry" />
        </mxCell>
        <mxCell id="GxfZMPhV7cBYfeG6iRfb-78" value="Фикусов Р.Р." style="rounded=0;whiteSpace=wrap;html=1;" vertex="1" parent="1">
          <mxGeometry x="880" y="715" width="120" height="30" as="geometry" />
        </mxCell>
        <mxCell id="GxfZMPhV7cBYfeG6iRfb-79" value="Кактусов К.К." style="rounded=0;whiteSpace=wrap;html=1;" vertex="1" parent="1">
          <mxGeometry x="880" y="765" width="120" height="30" as="geometry" />
        </mxCell>
        <mxCell id="GxfZMPhV7cBYfeG6iRfb-80" value="Иволгин Ф.Ф." style="rounded=0;whiteSpace=wrap;html=1;" vertex="1" parent="1">
          <mxGeometry x="880" y="815" width="120" height="30" as="geometry" />
        </mxCell>
        <mxCell id="GxfZMPhV7cBYfeG6iRfb-81" value="" style="endArrow=none;html=1;rounded=0;exitX=1;exitY=0.5;exitDx=0;exitDy=0;entryX=0;entryY=0.5;entryDx=0;entryDy=0;" edge="1" parent="1" source="GxfZMPhV7cBYfeG6iRfb-72" target="GxfZMPhV7cBYfeG6iRfb-78">
          <mxGeometry width="50" height="50" relative="1" as="geometry">
            <mxPoint x="700" y="755" as="sourcePoint" />
            <mxPoint x="750" y="705" as="targetPoint" />
          </mxGeometry>
        </mxCell>
        <mxCell id="GxfZMPhV7cBYfeG6iRfb-82" value="" style="endArrow=none;html=1;rounded=0;exitX=1;exitY=0.5;exitDx=0;exitDy=0;entryX=0;entryY=0.5;entryDx=0;entryDy=0;" edge="1" parent="1" source="GxfZMPhV7cBYfeG6iRfb-73" target="GxfZMPhV7cBYfeG6iRfb-79">
          <mxGeometry width="50" height="50" relative="1" as="geometry">
            <mxPoint x="650" y="740" as="sourcePoint" />
            <mxPoint x="810" y="740" as="targetPoint" />
          </mxGeometry>
        </mxCell>
        <mxCell id="GxfZMPhV7cBYfeG6iRfb-83" value="" style="endArrow=none;html=1;rounded=0;exitX=1;exitY=0.5;exitDx=0;exitDy=0;entryX=0;entryY=0.5;entryDx=0;entryDy=0;" edge="1" parent="1" source="GxfZMPhV7cBYfeG6iRfb-74" target="GxfZMPhV7cBYfeG6iRfb-80">
          <mxGeometry width="50" height="50" relative="1" as="geometry">
            <mxPoint x="650" y="790" as="sourcePoint" />
            <mxPoint x="810" y="790" as="targetPoint" />
          </mxGeometry>
        </mxCell>
        <mxCell id="GxfZMPhV7cBYfeG6iRfb-84" value="Зам. ген. директора по ЖКХ" style="rounded=0;whiteSpace=wrap;html=1;" vertex="1" parent="1">
          <mxGeometry x="520" y="944" width="120" height="30" as="geometry" />
        </mxCell>
        <mxCell id="GxfZMPhV7cBYfeG6iRfb-85" value="" style="endArrow=none;html=1;rounded=0;entryX=0;entryY=0.5;entryDx=0;entryDy=0;exitX=1;exitY=0.5;exitDx=0;exitDy=0;" edge="1" parent="1" source="GxfZMPhV7cBYfeG6iRfb-4" target="GxfZMPhV7cBYfeG6iRfb-84">
          <mxGeometry width="50" height="50" relative="1" as="geometry">
            <mxPoint x="480" y="1140" as="sourcePoint" />
            <mxPoint x="530" y="1090" as="targetPoint" />
            <Array as="points">
              <mxPoint x="220" y="1220" />
              <mxPoint x="220" y="960" />
            </Array>
          </mxGeometry>
        </mxCell>
        <mxCell id="GxfZMPhV7cBYfeG6iRfb-86" value="Иванов И.И." style="rounded=0;whiteSpace=wrap;html=1;" vertex="1" parent="1">
          <mxGeometry x="880" y="30" width="120" height="30" as="geometry" />
        </mxCell>
        <mxCell id="GxfZMPhV7cBYfeG6iRfb-87" value="" style="endArrow=none;html=1;rounded=0;exitX=1;exitY=0.5;exitDx=0;exitDy=0;entryX=0;entryY=0.5;entryDx=0;entryDy=0;" edge="1" parent="1" source="GxfZMPhV7cBYfeG6iRfb-37" target="GxfZMPhV7cBYfeG6iRfb-86">
          <mxGeometry width="50" height="50" relative="1" as="geometry">
            <mxPoint x="650" y="145" as="sourcePoint" />
            <mxPoint x="810" y="145" as="targetPoint" />
          </mxGeometry>
        </mxCell>
        <mxCell id="GxfZMPhV7cBYfeG6iRfb-88" value="Лысиков П.Р." style="rounded=0;whiteSpace=wrap;html=1;" vertex="1" parent="1">
          <mxGeometry x="880" y="944" width="120" height="30" as="geometry" />
        </mxCell>
        <mxCell id="GxfZMPhV7cBYfeG6iRfb-89" value="" style="endArrow=none;html=1;rounded=0;entryX=0;entryY=0.5;entryDx=0;entryDy=0;exitX=1;exitY=0.5;exitDx=0;exitDy=0;" edge="1" parent="1" target="GxfZMPhV7cBYfeG6iRfb-88" source="GxfZMPhV7cBYfeG6iRfb-84">
          <mxGeometry width="50" height="50" relative="1" as="geometry">
            <mxPoint x="650" y="970" as="sourcePoint" />
            <mxPoint x="810" y="1059" as="targetPoint" />
          </mxGeometry>
        </mxCell>
        <mxCell id="GxfZMPhV7cBYfeG6iRfb-90" value="Начальник ПТО" style="rounded=0;whiteSpace=wrap;html=1;" vertex="1" parent="1">
          <mxGeometry x="520" y="999" width="120" height="30" as="geometry" />
        </mxCell>
        <mxCell id="GxfZMPhV7cBYfeG6iRfb-91" value="Старший специалист ПТО" style="rounded=0;whiteSpace=wrap;html=1;" vertex="1" parent="1">
          <mxGeometry x="520" y="1049" width="120" height="30" as="geometry" />
        </mxCell>
        <mxCell id="GxfZMPhV7cBYfeG6iRfb-92" value="Специалист ПТО" style="rounded=0;whiteSpace=wrap;html=1;" vertex="1" parent="1">
          <mxGeometry x="520" y="1099" width="120" height="30" as="geometry" />
        </mxCell>
        <mxCell id="GxfZMPhV7cBYfeG6iRfb-96" value="Начальник ОДС" style="rounded=0;whiteSpace=wrap;html=1;" vertex="1" parent="1">
          <mxGeometry x="520" y="1150" width="120" height="30" as="geometry" />
        </mxCell>
        <mxCell id="GxfZMPhV7cBYfeG6iRfb-97" value="Старший техник" style="rounded=0;whiteSpace=wrap;html=1;" vertex="1" parent="1">
          <mxGeometry x="520" y="1200" width="120" height="30" as="geometry" />
        </mxCell>
        <mxCell id="GxfZMPhV7cBYfeG6iRfb-98" value="Диспетчер" style="rounded=0;whiteSpace=wrap;html=1;" vertex="1" parent="1">
          <mxGeometry x="520" y="1250" width="120" height="30" as="geometry" />
        </mxCell>
        <mxCell id="GxfZMPhV7cBYfeG6iRfb-99" value="" style="endArrow=none;html=1;rounded=0;entryX=0;entryY=0.5;entryDx=0;entryDy=0;" edge="1" parent="1" target="GxfZMPhV7cBYfeG6iRfb-15">
          <mxGeometry width="50" height="50" relative="1" as="geometry">
            <mxPoint x="220" y="1220" as="sourcePoint" />
            <mxPoint x="330" y="1290" as="targetPoint" />
            <Array as="points">
              <mxPoint x="230" y="1220" />
              <mxPoint x="230" y="1215" />
            </Array>
          </mxGeometry>
        </mxCell>
        <mxCell id="GxfZMPhV7cBYfeG6iRfb-101" value="Начальник АДС" style="rounded=0;whiteSpace=wrap;html=1;" vertex="1" parent="1">
          <mxGeometry x="520" y="1365" width="120" height="30" as="geometry" />
        </mxCell>
        <mxCell id="GxfZMPhV7cBYfeG6iRfb-102" value="Старший техник АДС" style="rounded=0;whiteSpace=wrap;html=1;" vertex="1" parent="1">
          <mxGeometry x="520" y="1415" width="120" height="30" as="geometry" />
        </mxCell>
        <mxCell id="GxfZMPhV7cBYfeG6iRfb-103" value="Диспетчер АДС" style="rounded=0;whiteSpace=wrap;html=1;" vertex="1" parent="1">
          <mxGeometry x="520" y="1480" width="120" height="30" as="geometry" />
        </mxCell>
        <mxCell id="GxfZMPhV7cBYfeG6iRfb-104" value="Бригадир бригады 1 АДС" style="rounded=0;whiteSpace=wrap;html=1;" vertex="1" parent="1">
          <mxGeometry x="520" y="1560" width="120" height="30" as="geometry" />
        </mxCell>
        <mxCell id="GxfZMPhV7cBYfeG6iRfb-105" value="Бригадир бригады 2&lt;br&gt;&amp;nbsp;АДС" style="rounded=0;whiteSpace=wrap;html=1;" vertex="1" parent="1">
          <mxGeometry x="520" y="1610" width="120" height="30" as="geometry" />
        </mxCell>
        <mxCell id="GxfZMPhV7cBYfeG6iRfb-106" value="Бригадир бригады 3 АДС" style="rounded=0;whiteSpace=wrap;html=1;" vertex="1" parent="1">
          <mxGeometry x="520" y="1660" width="120" height="30" as="geometry" />
        </mxCell>
        <mxCell id="GxfZMPhV7cBYfeG6iRfb-107" value="Сварщик" style="rounded=0;whiteSpace=wrap;html=1;" vertex="1" parent="1">
          <mxGeometry x="520" y="1760" width="120" height="30" as="geometry" />
        </mxCell>
        <mxCell id="GxfZMPhV7cBYfeG6iRfb-108" value="Электромонтажник" style="rounded=0;whiteSpace=wrap;html=1;" vertex="1" parent="1">
          <mxGeometry x="520" y="1920" width="120" height="30" as="geometry" />
        </mxCell>
        <mxCell id="GxfZMPhV7cBYfeG6iRfb-109" value="Сантехник" style="rounded=0;whiteSpace=wrap;html=1;" vertex="1" parent="1">
          <mxGeometry x="520" y="2080" width="120" height="30" as="geometry" />
        </mxCell>
        <mxCell id="GxfZMPhV7cBYfeG6iRfb-110" value="Разнорабочий" style="rounded=0;whiteSpace=wrap;html=1;" vertex="1" parent="1">
          <mxGeometry x="520" y="2270" width="120" height="30" as="geometry" />
        </mxCell>
        <mxCell id="GxfZMPhV7cBYfeG6iRfb-115" value="" style="endArrow=none;html=1;rounded=0;entryX=0;entryY=0.5;entryDx=0;entryDy=0;" edge="1" parent="1" target="GxfZMPhV7cBYfeG6iRfb-16">
          <mxGeometry width="50" height="50" relative="1" as="geometry">
            <mxPoint x="220" y="1610" as="sourcePoint" />
            <mxPoint x="280" y="1510" as="targetPoint" />
            <Array as="points">
              <mxPoint x="220" y="1825" />
            </Array>
          </mxGeometry>
        </mxCell>
        <mxCell id="GxfZMPhV7cBYfeG6iRfb-116" value="Начальник отдела контроля и энергосбережения" style="rounded=0;whiteSpace=wrap;html=1;" vertex="1" parent="1">
          <mxGeometry x="520" y="2450" width="120" height="50" as="geometry" />
        </mxCell>
        <mxCell id="GxfZMPhV7cBYfeG6iRfb-117" value="Старший специалист отдела" style="rounded=0;whiteSpace=wrap;html=1;" vertex="1" parent="1">
          <mxGeometry x="520" y="2510" width="120" height="30" as="geometry" />
        </mxCell>
        <mxCell id="GxfZMPhV7cBYfeG6iRfb-118" value="Специалист отдела" style="rounded=0;whiteSpace=wrap;html=1;" vertex="1" parent="1">
          <mxGeometry x="520" y="2560" width="120" height="30" as="geometry" />
        </mxCell>
        <mxCell id="GxfZMPhV7cBYfeG6iRfb-119" value="" style="endArrow=none;html=1;rounded=0;entryX=0;entryY=0.5;entryDx=0;entryDy=0;" edge="1" parent="1" target="GxfZMPhV7cBYfeG6iRfb-14">
          <mxGeometry width="50" height="50" relative="1" as="geometry">
            <mxPoint x="220" y="1064" as="sourcePoint" />
            <mxPoint x="340" y="1100" as="targetPoint" />
          </mxGeometry>
        </mxCell>
        <mxCell id="GxfZMPhV7cBYfeG6iRfb-120" value="Зам. директора по экономике&amp;nbsp;" style="rounded=0;whiteSpace=wrap;html=1;" vertex="1" parent="1">
          <mxGeometry x="520" y="2715" width="120" height="30" as="geometry" />
        </mxCell>
        <mxCell id="GxfZMPhV7cBYfeG6iRfb-121" value="Финансовый менеджер" style="rounded=0;whiteSpace=wrap;html=1;" vertex="1" parent="1">
          <mxGeometry x="520" y="2765" width="120" height="30" as="geometry" />
        </mxCell>
        <mxCell id="GxfZMPhV7cBYfeG6iRfb-122" value="Экономист" style="rounded=0;whiteSpace=wrap;html=1;" vertex="1" parent="1">
          <mxGeometry x="520" y="2815" width="120" height="30" as="geometry" />
        </mxCell>
        <mxCell id="GxfZMPhV7cBYfeG6iRfb-123" value="Зам. директора по благоустройству" style="rounded=0;whiteSpace=wrap;html=1;" vertex="1" parent="1">
          <mxGeometry x="520" y="3029" width="120" height="30" as="geometry" />
        </mxCell>
        <mxCell id="GxfZMPhV7cBYfeG6iRfb-124" value="Ландшафтный дизайнер" style="rounded=0;whiteSpace=wrap;html=1;" vertex="1" parent="1">
          <mxGeometry x="520" y="3079" width="120" height="30" as="geometry" />
        </mxCell>
        <mxCell id="GxfZMPhV7cBYfeG6iRfb-125" value="Инженер" style="rounded=0;whiteSpace=wrap;html=1;" vertex="1" parent="1">
          <mxGeometry x="520" y="3129" width="120" height="30" as="geometry" />
        </mxCell>
        <mxCell id="GxfZMPhV7cBYfeG6iRfb-129" value="Разнорабочий" style="rounded=0;whiteSpace=wrap;html=1;" vertex="1" parent="1">
          <mxGeometry x="520" y="3181" width="120" height="30" as="geometry" />
        </mxCell>
        <mxCell id="GxfZMPhV7cBYfeG6iRfb-130" value="Старший юрист-консультант" style="rounded=0;whiteSpace=wrap;html=1;" vertex="1" parent="1">
          <mxGeometry x="520" y="3380" width="120" height="30" as="geometry" />
        </mxCell>
        <mxCell id="GxfZMPhV7cBYfeG6iRfb-131" value="Юрист" style="rounded=0;whiteSpace=wrap;html=1;" vertex="1" parent="1">
          <mxGeometry x="520" y="3430" width="120" height="30" as="geometry" />
        </mxCell>
        <mxCell id="GxfZMPhV7cBYfeG6iRfb-132" value="Старший менеджер" style="rounded=0;whiteSpace=wrap;html=1;" vertex="1" parent="1">
          <mxGeometry x="520" y="3549" width="120" height="30" as="geometry" />
        </mxCell>
        <mxCell id="GxfZMPhV7cBYfeG6iRfb-133" value="Менеджер" style="rounded=0;whiteSpace=wrap;html=1;" vertex="1" parent="1">
          <mxGeometry x="520" y="3601" width="120" height="30" as="geometry" />
        </mxCell>
        <mxCell id="GxfZMPhV7cBYfeG6iRfb-134" value="Зам. директора по юридическим вопросам" style="rounded=0;whiteSpace=wrap;html=1;" vertex="1" parent="1">
          <mxGeometry x="520" y="3270" width="120" height="40" as="geometry" />
        </mxCell>
        <mxCell id="GxfZMPhV7cBYfeG6iRfb-135" value="" style="endArrow=none;html=1;rounded=0;exitX=1;exitY=0.5;exitDx=0;exitDy=0;entryX=0;entryY=0.5;entryDx=0;entryDy=0;" edge="1" parent="1" source="GxfZMPhV7cBYfeG6iRfb-7" target="GxfZMPhV7cBYfeG6iRfb-134">
          <mxGeometry width="50" height="50" relative="1" as="geometry">
            <mxPoint x="170" y="3430" as="sourcePoint" />
            <mxPoint x="220" y="3380" as="targetPoint" />
            <Array as="points">
              <mxPoint x="220" y="3500" />
              <mxPoint x="220" y="3400" />
              <mxPoint x="220" y="3290" />
            </Array>
          </mxGeometry>
        </mxCell>
        <mxCell id="GxfZMPhV7cBYfeG6iRfb-136" value="" style="endArrow=none;html=1;rounded=0;exitX=1;exitY=0.5;exitDx=0;exitDy=0;" edge="1" parent="1" source="GxfZMPhV7cBYfeG6iRfb-1">
          <mxGeometry width="50" height="50" relative="1" as="geometry">
            <mxPoint x="240" y="130" as="sourcePoint" />
            <mxPoint x="480" y="90" as="targetPoint" />
          </mxGeometry>
        </mxCell>
        <mxCell id="GxfZMPhV7cBYfeG6iRfb-137" value="" style="endArrow=none;html=1;rounded=0;entryX=0;entryY=0.5;entryDx=0;entryDy=0;" edge="1" parent="1" target="GxfZMPhV7cBYfeG6iRfb-33">
          <mxGeometry width="50" height="50" relative="1" as="geometry">
            <mxPoint x="480" y="90" as="sourcePoint" />
            <mxPoint x="490" y="130" as="targetPoint" />
            <Array as="points">
              <mxPoint x="480" y="285" />
            </Array>
          </mxGeometry>
        </mxCell>
        <mxCell id="GxfZMPhV7cBYfeG6iRfb-141" value="" style="endArrow=none;html=1;rounded=0;entryX=0;entryY=0.5;entryDx=0;entryDy=0;" edge="1" parent="1" target="GxfZMPhV7cBYfeG6iRfb-32">
          <mxGeometry width="50" height="50" relative="1" as="geometry">
            <mxPoint x="480" y="235" as="sourcePoint" />
            <mxPoint x="430" y="250" as="targetPoint" />
          </mxGeometry>
        </mxCell>
        <mxCell id="GxfZMPhV7cBYfeG6iRfb-142" value="" style="endArrow=none;html=1;rounded=0;entryX=0;entryY=0.5;entryDx=0;entryDy=0;" edge="1" parent="1" target="GxfZMPhV7cBYfeG6iRfb-29">
          <mxGeometry width="50" height="50" relative="1" as="geometry">
            <mxPoint x="480" y="185" as="sourcePoint" />
            <mxPoint x="530" y="245" as="targetPoint" />
          </mxGeometry>
        </mxCell>
        <mxCell id="GxfZMPhV7cBYfeG6iRfb-143" value="" style="endArrow=none;html=1;rounded=0;entryX=0;entryY=0.5;entryDx=0;entryDy=0;" edge="1" parent="1" target="GxfZMPhV7cBYfeG6iRfb-27">
          <mxGeometry width="50" height="50" relative="1" as="geometry">
            <mxPoint x="480" y="135" as="sourcePoint" />
            <mxPoint x="530" y="195" as="targetPoint" />
          </mxGeometry>
        </mxCell>
        <mxCell id="GxfZMPhV7cBYfeG6iRfb-144" value="" style="endArrow=none;html=1;rounded=0;exitX=1;exitY=0.5;exitDx=0;exitDy=0;" edge="1" parent="1" source="GxfZMPhV7cBYfeG6iRfb-2">
          <mxGeometry width="50" height="50" relative="1" as="geometry">
            <mxPoint x="160" y="400" as="sourcePoint" />
            <mxPoint x="480" y="400" as="targetPoint" />
          </mxGeometry>
        </mxCell>
        <mxCell id="GxfZMPhV7cBYfeG6iRfb-145" value="" style="endArrow=none;html=1;rounded=0;entryX=0;entryY=0.5;entryDx=0;entryDy=0;" edge="1" parent="1" target="GxfZMPhV7cBYfeG6iRfb-51">
          <mxGeometry width="50" height="50" relative="1" as="geometry">
            <mxPoint x="480" y="400" as="sourcePoint" />
            <mxPoint x="520" y="595" as="targetPoint" />
            <Array as="points">
              <mxPoint x="480" y="595" />
            </Array>
          </mxGeometry>
        </mxCell>
        <mxCell id="GxfZMPhV7cBYfeG6iRfb-146" value="" style="endArrow=none;html=1;rounded=0;entryX=0;entryY=0.5;entryDx=0;entryDy=0;" edge="1" parent="1" target="GxfZMPhV7cBYfeG6iRfb-50">
          <mxGeometry width="50" height="50" relative="1" as="geometry">
            <mxPoint x="480" y="545" as="sourcePoint" />
            <mxPoint x="520" y="545" as="targetPoint" />
          </mxGeometry>
        </mxCell>
        <mxCell id="GxfZMPhV7cBYfeG6iRfb-147" value="" style="endArrow=none;html=1;rounded=0;entryX=0;entryY=0.5;entryDx=0;entryDy=0;" edge="1" parent="1" target="GxfZMPhV7cBYfeG6iRfb-49">
          <mxGeometry width="50" height="50" relative="1" as="geometry">
            <mxPoint x="480" y="495" as="sourcePoint" />
            <mxPoint x="520" y="495" as="targetPoint" />
          </mxGeometry>
        </mxCell>
        <mxCell id="GxfZMPhV7cBYfeG6iRfb-148" value="" style="endArrow=none;html=1;rounded=0;entryX=0;entryY=0.5;entryDx=0;entryDy=0;" edge="1" parent="1" target="GxfZMPhV7cBYfeG6iRfb-48">
          <mxGeometry width="50" height="50" relative="1" as="geometry">
            <mxPoint x="480" y="445" as="sourcePoint" />
            <mxPoint x="520" y="445" as="targetPoint" />
          </mxGeometry>
        </mxCell>
        <mxCell id="GxfZMPhV7cBYfeG6iRfb-149" value="Лютиков С.С." style="rounded=0;whiteSpace=wrap;html=1;" vertex="1" parent="1">
          <mxGeometry x="880" y="999" width="120" height="30" as="geometry" />
        </mxCell>
        <mxCell id="GxfZMPhV7cBYfeG6iRfb-150" value="Лютикова С.В." style="rounded=0;whiteSpace=wrap;html=1;" vertex="1" parent="1">
          <mxGeometry x="880" y="1049" width="120" height="30" as="geometry" />
        </mxCell>
        <mxCell id="GxfZMPhV7cBYfeG6iRfb-151" value="Василькова Ю.В." style="rounded=0;whiteSpace=wrap;html=1;" vertex="1" parent="1">
          <mxGeometry x="880" y="1099" width="120" height="30" as="geometry" />
        </mxCell>
        <mxCell id="GxfZMPhV7cBYfeG6iRfb-152" value="Котова Я.И." style="rounded=0;whiteSpace=wrap;html=1;" vertex="1" parent="1">
          <mxGeometry x="880" y="1150" width="120" height="30" as="geometry" />
        </mxCell>
        <mxCell id="GxfZMPhV7cBYfeG6iRfb-153" value="Круглов Т.Г." style="rounded=0;whiteSpace=wrap;html=1;" vertex="1" parent="1">
          <mxGeometry x="880" y="1200" width="120" height="30" as="geometry" />
        </mxCell>
        <mxCell id="GxfZMPhV7cBYfeG6iRfb-154" value="Крутякова Н.Ф." style="rounded=0;whiteSpace=wrap;html=1;" vertex="1" parent="1">
          <mxGeometry x="880" y="1250" width="120" height="30" as="geometry" />
        </mxCell>
        <mxCell id="GxfZMPhV7cBYfeG6iRfb-155" value="Подкованная Н.Б." style="rounded=0;whiteSpace=wrap;html=1;" vertex="1" parent="1">
          <mxGeometry x="880" y="3374.5" width="120" height="30" as="geometry" />
        </mxCell>
        <mxCell id="GxfZMPhV7cBYfeG6iRfb-156" value="Крупный Д.Д." style="rounded=0;whiteSpace=wrap;html=1;" vertex="1" parent="1">
          <mxGeometry x="880" y="3424.5" width="120" height="30" as="geometry" />
        </mxCell>
        <mxCell id="GxfZMPhV7cBYfeG6iRfb-157" value="Умников Э.Д." style="rounded=0;whiteSpace=wrap;html=1;" vertex="1" parent="1">
          <mxGeometry x="880" y="3543.5" width="120" height="30" as="geometry" />
        </mxCell>
        <mxCell id="GxfZMPhV7cBYfeG6iRfb-158" value="Чуйкин В.С." style="rounded=0;whiteSpace=wrap;html=1;" vertex="1" parent="1">
          <mxGeometry x="880" y="3595.5" width="120" height="30" as="geometry" />
        </mxCell>
        <mxCell id="GxfZMPhV7cBYfeG6iRfb-159" value="Зубов З.Ц." style="rounded=0;whiteSpace=wrap;html=1;" vertex="1" parent="1">
          <mxGeometry x="880" y="3029" width="120" height="30" as="geometry" />
        </mxCell>
        <mxCell id="GxfZMPhV7cBYfeG6iRfb-160" value="Креативная Н.Б." style="rounded=0;whiteSpace=wrap;html=1;" vertex="1" parent="1">
          <mxGeometry x="880" y="3079" width="120" height="30" as="geometry" />
        </mxCell>
        <mxCell id="GxfZMPhV7cBYfeG6iRfb-161" value="Мастеровой Б.Б." style="rounded=0;whiteSpace=wrap;html=1;" vertex="1" parent="1">
          <mxGeometry x="880" y="3129" width="120" height="30" as="geometry" />
        </mxCell>
        <mxCell id="GxfZMPhV7cBYfeG6iRfb-162" value="Рукастый Ф.С." style="rounded=0;whiteSpace=wrap;html=1;" vertex="1" parent="1">
          <mxGeometry x="880" y="3181" width="120" height="30" as="geometry" />
        </mxCell>
        <mxCell id="GxfZMPhV7cBYfeG6iRfb-163" value="Романов Р.Р." style="rounded=0;whiteSpace=wrap;html=1;" vertex="1" parent="1">
          <mxGeometry x="880" y="2460" width="120" height="30" as="geometry" />
        </mxCell>
        <mxCell id="GxfZMPhV7cBYfeG6iRfb-164" value="Романов С.Р." style="rounded=0;whiteSpace=wrap;html=1;" vertex="1" parent="1">
          <mxGeometry x="880" y="2510" width="120" height="30" as="geometry" />
        </mxCell>
        <mxCell id="GxfZMPhV7cBYfeG6iRfb-165" value="Малюта Н.Н." style="rounded=0;whiteSpace=wrap;html=1;" vertex="1" parent="1">
          <mxGeometry x="880" y="2560" width="120" height="30" as="geometry" />
        </mxCell>
        <mxCell id="GxfZMPhV7cBYfeG6iRfb-166" value="Экономичный Ф.Л." style="rounded=0;whiteSpace=wrap;html=1;" vertex="1" parent="1">
          <mxGeometry x="880" y="2715" width="120" height="30" as="geometry" />
        </mxCell>
        <mxCell id="GxfZMPhV7cBYfeG6iRfb-167" value="Пяткина Л.Л." style="rounded=0;whiteSpace=wrap;html=1;" vertex="1" parent="1">
          <mxGeometry x="880" y="2765" width="120" height="30" as="geometry" />
        </mxCell>
        <mxCell id="GxfZMPhV7cBYfeG6iRfb-168" value="Пустобаева О.Д." style="rounded=0;whiteSpace=wrap;html=1;" vertex="1" parent="1">
          <mxGeometry x="880" y="2815" width="120" height="30" as="geometry" />
        </mxCell>
        <mxCell id="GxfZMPhV7cBYfeG6iRfb-169" value="Кротов В.В." style="rounded=0;whiteSpace=wrap;html=1;" vertex="1" parent="1">
          <mxGeometry x="880" y="1365" width="120" height="30" as="geometry" />
        </mxCell>
        <mxCell id="GxfZMPhV7cBYfeG6iRfb-170" value="Шубин Н.Ю" style="rounded=0;whiteSpace=wrap;html=1;" vertex="1" parent="1">
          <mxGeometry x="880" y="1415" width="120" height="30" as="geometry" />
        </mxCell>
        <mxCell id="GxfZMPhV7cBYfeG6iRfb-171" value="Котова Н.И." style="rounded=0;whiteSpace=wrap;html=1;" vertex="1" parent="1">
          <mxGeometry x="880" y="1460" width="120" height="30" as="geometry" />
        </mxCell>
        <mxCell id="GxfZMPhV7cBYfeG6iRfb-172" value="Смирнова Ю.В." style="rounded=0;whiteSpace=wrap;html=1;" vertex="1" parent="1">
          <mxGeometry x="880" y="1510" width="120" height="30" as="geometry" />
        </mxCell>
        <mxCell id="GxfZMPhV7cBYfeG6iRfb-173" value="" style="endArrow=none;html=1;rounded=0;exitX=1;exitY=0.5;exitDx=0;exitDy=0;entryX=0;entryY=0.5;entryDx=0;entryDy=0;" edge="1" parent="1" source="GxfZMPhV7cBYfeG6iRfb-103" target="GxfZMPhV7cBYfeG6iRfb-171">
          <mxGeometry width="50" height="50" relative="1" as="geometry">
            <mxPoint x="690" y="1490" as="sourcePoint" />
            <mxPoint x="740" y="1440" as="targetPoint" />
            <Array as="points">
              <mxPoint x="830" y="1495" />
              <mxPoint x="830" y="1475" />
            </Array>
          </mxGeometry>
        </mxCell>
        <mxCell id="GxfZMPhV7cBYfeG6iRfb-174" value="" style="endArrow=none;html=1;rounded=0;entryX=0;entryY=0.5;entryDx=0;entryDy=0;" edge="1" parent="1" target="GxfZMPhV7cBYfeG6iRfb-172">
          <mxGeometry width="50" height="50" relative="1" as="geometry">
            <mxPoint x="830" y="1495" as="sourcePoint" />
            <mxPoint x="870" y="1500" as="targetPoint" />
            <Array as="points">
              <mxPoint x="830" y="1525" />
            </Array>
          </mxGeometry>
        </mxCell>
        <mxCell id="GxfZMPhV7cBYfeG6iRfb-175" value="Сомов Е.Е." style="rounded=0;whiteSpace=wrap;html=1;" vertex="1" parent="1">
          <mxGeometry x="880" y="1560" width="120" height="30" as="geometry" />
        </mxCell>
        <mxCell id="GxfZMPhV7cBYfeG6iRfb-176" value="Крутяков Л.Б." style="rounded=0;whiteSpace=wrap;html=1;" vertex="1" parent="1">
          <mxGeometry x="880" y="1610" width="120" height="30" as="geometry" />
        </mxCell>
        <mxCell id="GxfZMPhV7cBYfeG6iRfb-177" value="Сидоров С.С." style="rounded=0;whiteSpace=wrap;html=1;" vertex="1" parent="1">
          <mxGeometry x="880" y="1660" width="120" height="30" as="geometry" />
        </mxCell>
        <mxCell id="GxfZMPhV7cBYfeG6iRfb-178" value="" style="endArrow=none;html=1;rounded=0;exitX=1;exitY=0.5;exitDx=0;exitDy=0;entryX=0;entryY=0.5;entryDx=0;entryDy=0;" edge="1" parent="1" source="GxfZMPhV7cBYfeG6iRfb-104" target="GxfZMPhV7cBYfeG6iRfb-175">
          <mxGeometry width="50" height="50" relative="1" as="geometry">
            <mxPoint x="720" y="1590" as="sourcePoint" />
            <mxPoint x="770" y="1540" as="targetPoint" />
          </mxGeometry>
        </mxCell>
        <mxCell id="GxfZMPhV7cBYfeG6iRfb-179" value="" style="endArrow=none;html=1;rounded=0;exitX=1;exitY=0.5;exitDx=0;exitDy=0;entryX=0;entryY=0.5;entryDx=0;entryDy=0;" edge="1" parent="1" source="GxfZMPhV7cBYfeG6iRfb-105" target="GxfZMPhV7cBYfeG6iRfb-176">
          <mxGeometry width="50" height="50" relative="1" as="geometry">
            <mxPoint x="650" y="1585" as="sourcePoint" />
            <mxPoint x="890" y="1585" as="targetPoint" />
          </mxGeometry>
        </mxCell>
        <mxCell id="GxfZMPhV7cBYfeG6iRfb-180" value="" style="endArrow=none;html=1;rounded=0;exitX=1;exitY=0.5;exitDx=0;exitDy=0;entryX=0;entryY=0.5;entryDx=0;entryDy=0;" edge="1" parent="1" source="GxfZMPhV7cBYfeG6iRfb-106" target="GxfZMPhV7cBYfeG6iRfb-177">
          <mxGeometry width="50" height="50" relative="1" as="geometry">
            <mxPoint x="660" y="1595" as="sourcePoint" />
            <mxPoint x="900" y="1595" as="targetPoint" />
          </mxGeometry>
        </mxCell>
        <mxCell id="GxfZMPhV7cBYfeG6iRfb-181" value="Борисов Б.Б" style="rounded=0;whiteSpace=wrap;html=1;" vertex="1" parent="1">
          <mxGeometry x="880" y="1710" width="120" height="30" as="geometry" />
        </mxCell>
        <mxCell id="GxfZMPhV7cBYfeG6iRfb-182" value="Критцкий А.П." style="rounded=0;whiteSpace=wrap;html=1;" vertex="1" parent="1">
          <mxGeometry x="880" y="1760" width="120" height="30" as="geometry" />
        </mxCell>
        <mxCell id="GxfZMPhV7cBYfeG6iRfb-183" value="Суриков Я.Ф" style="rounded=0;whiteSpace=wrap;html=1;" vertex="1" parent="1">
          <mxGeometry x="880" y="1810" width="120" height="30" as="geometry" />
        </mxCell>
        <mxCell id="GxfZMPhV7cBYfeG6iRfb-184" value="Акимов А.А." style="rounded=0;whiteSpace=wrap;html=1;" vertex="1" parent="1">
          <mxGeometry x="880" y="1870" width="120" height="30" as="geometry" />
        </mxCell>
        <mxCell id="GxfZMPhV7cBYfeG6iRfb-185" value="Кирсанов П.А." style="rounded=0;whiteSpace=wrap;html=1;" vertex="1" parent="1">
          <mxGeometry x="880" y="1920" width="120" height="30" as="geometry" />
        </mxCell>
        <mxCell id="GxfZMPhV7cBYfeG6iRfb-186" value="Пушкинский Е.С." style="rounded=0;whiteSpace=wrap;html=1;" vertex="1" parent="1">
          <mxGeometry x="880" y="1970" width="120" height="30" as="geometry" />
        </mxCell>
        <mxCell id="GxfZMPhV7cBYfeG6iRfb-187" value="Волынкин С.В." style="rounded=0;whiteSpace=wrap;html=1;" vertex="1" parent="1">
          <mxGeometry x="880" y="2030" width="120" height="30" as="geometry" />
        </mxCell>
        <mxCell id="GxfZMPhV7cBYfeG6iRfb-188" value="Брюсов Д.Д." style="rounded=0;whiteSpace=wrap;html=1;" vertex="1" parent="1">
          <mxGeometry x="880" y="2080" width="120" height="30" as="geometry" />
        </mxCell>
        <mxCell id="GxfZMPhV7cBYfeG6iRfb-189" value="Проворов И.М." style="rounded=0;whiteSpace=wrap;html=1;" vertex="1" parent="1">
          <mxGeometry x="880" y="2130" width="120" height="30" as="geometry" />
        </mxCell>
        <mxCell id="GxfZMPhV7cBYfeG6iRfb-191" value="" style="endArrow=none;html=1;rounded=0;exitX=1;exitY=0.5;exitDx=0;exitDy=0;entryX=0;entryY=0.5;entryDx=0;entryDy=0;" edge="1" parent="1" source="GxfZMPhV7cBYfeG6iRfb-107" target="GxfZMPhV7cBYfeG6iRfb-182">
          <mxGeometry width="50" height="50" relative="1" as="geometry">
            <mxPoint x="650" y="1685" as="sourcePoint" />
            <mxPoint x="890" y="1685" as="targetPoint" />
          </mxGeometry>
        </mxCell>
        <mxCell id="GxfZMPhV7cBYfeG6iRfb-192" value="" style="endArrow=none;html=1;rounded=0;exitX=1;exitY=0.5;exitDx=0;exitDy=0;entryX=0;entryY=0.5;entryDx=0;entryDy=0;" edge="1" parent="1" source="GxfZMPhV7cBYfeG6iRfb-108" target="GxfZMPhV7cBYfeG6iRfb-185">
          <mxGeometry width="50" height="50" relative="1" as="geometry">
            <mxPoint x="650" y="1785" as="sourcePoint" />
            <mxPoint x="890" y="1785" as="targetPoint" />
          </mxGeometry>
        </mxCell>
        <mxCell id="GxfZMPhV7cBYfeG6iRfb-194" value="" style="endArrow=none;html=1;rounded=0;exitX=1;exitY=0.5;exitDx=0;exitDy=0;entryX=0;entryY=0.5;entryDx=0;entryDy=0;" edge="1" parent="1" source="GxfZMPhV7cBYfeG6iRfb-109" target="GxfZMPhV7cBYfeG6iRfb-188">
          <mxGeometry width="50" height="50" relative="1" as="geometry">
            <mxPoint x="650" y="1945" as="sourcePoint" />
            <mxPoint x="890" y="1945" as="targetPoint" />
          </mxGeometry>
        </mxCell>
        <mxCell id="GxfZMPhV7cBYfeG6iRfb-195" value="Риманов В.А." style="rounded=0;whiteSpace=wrap;html=1;" vertex="1" parent="1">
          <mxGeometry x="880" y="2220" width="120" height="30" as="geometry" />
        </mxCell>
        <mxCell id="GxfZMPhV7cBYfeG6iRfb-196" value="Петров В.В." style="rounded=0;whiteSpace=wrap;html=1;" vertex="1" parent="1">
          <mxGeometry x="880" y="2270" width="120" height="30" as="geometry" />
        </mxCell>
        <mxCell id="GxfZMPhV7cBYfeG6iRfb-197" value="Васильков В.В." style="rounded=0;whiteSpace=wrap;html=1;" vertex="1" parent="1">
          <mxGeometry x="880" y="2320" width="120" height="30" as="geometry" />
        </mxCell>
        <mxCell id="GxfZMPhV7cBYfeG6iRfb-198" value="Ветров О.П." style="rounded=0;whiteSpace=wrap;html=1;" vertex="1" parent="1">
          <mxGeometry x="880" y="2370" width="120" height="30" as="geometry" />
        </mxCell>
        <mxCell id="GxfZMPhV7cBYfeG6iRfb-199" value="Крымский В.М." style="rounded=0;whiteSpace=wrap;html=1;" vertex="1" parent="1">
          <mxGeometry x="880" y="2170" width="120" height="30" as="geometry" />
        </mxCell>
        <mxCell id="GxfZMPhV7cBYfeG6iRfb-200" value="" style="endArrow=none;html=1;rounded=0;exitX=1;exitY=0.5;exitDx=0;exitDy=0;entryX=0;entryY=0.5;entryDx=0;entryDy=0;" edge="1" parent="1" source="GxfZMPhV7cBYfeG6iRfb-110" target="GxfZMPhV7cBYfeG6iRfb-196">
          <mxGeometry width="50" height="50" relative="1" as="geometry">
            <mxPoint x="650" y="2105" as="sourcePoint" />
            <mxPoint x="890" y="2105" as="targetPoint" />
          </mxGeometry>
        </mxCell>
        <mxCell id="GxfZMPhV7cBYfeG6iRfb-201" value="" style="endArrow=none;html=1;rounded=0;" edge="1" parent="1">
          <mxGeometry width="50" height="50" relative="1" as="geometry">
            <mxPoint x="830" y="2385" as="sourcePoint" />
            <mxPoint x="830" y="2185" as="targetPoint" />
          </mxGeometry>
        </mxCell>
        <mxCell id="GxfZMPhV7cBYfeG6iRfb-202" value="" style="endArrow=none;html=1;rounded=0;entryX=0;entryY=0.5;entryDx=0;entryDy=0;" edge="1" parent="1" target="GxfZMPhV7cBYfeG6iRfb-199">
          <mxGeometry width="50" height="50" relative="1" as="geometry">
            <mxPoint x="830" y="2185" as="sourcePoint" />
            <mxPoint x="900" y="2130" as="targetPoint" />
          </mxGeometry>
        </mxCell>
        <mxCell id="GxfZMPhV7cBYfeG6iRfb-203" value="" style="endArrow=none;html=1;rounded=0;entryX=0;entryY=0.5;entryDx=0;entryDy=0;" edge="1" parent="1" target="GxfZMPhV7cBYfeG6iRfb-198">
          <mxGeometry width="50" height="50" relative="1" as="geometry">
            <mxPoint x="831" y="2385" as="sourcePoint" />
            <mxPoint x="920" y="2360" as="targetPoint" />
          </mxGeometry>
        </mxCell>
        <mxCell id="GxfZMPhV7cBYfeG6iRfb-205" value="" style="endArrow=none;html=1;rounded=0;exitX=1;exitY=0.5;exitDx=0;exitDy=0;entryX=0;entryY=0.5;entryDx=0;entryDy=0;" edge="1" parent="1" source="GxfZMPhV7cBYfeG6iRfb-22" target="GxfZMPhV7cBYfeG6iRfb-130">
          <mxGeometry width="50" height="50" relative="1" as="geometry">
            <mxPoint x="440" y="3440" as="sourcePoint" />
            <mxPoint x="490" y="3390" as="targetPoint" />
            <Array as="points">
              <mxPoint x="480" y="3420" />
              <mxPoint x="480" y="3395" />
            </Array>
          </mxGeometry>
        </mxCell>
        <mxCell id="GxfZMPhV7cBYfeG6iRfb-206" value="" style="endArrow=none;html=1;rounded=0;entryX=0;entryY=0.5;entryDx=0;entryDy=0;" edge="1" parent="1" target="GxfZMPhV7cBYfeG6iRfb-131">
          <mxGeometry width="50" height="50" relative="1" as="geometry">
            <mxPoint x="480" y="3420" as="sourcePoint" />
            <mxPoint x="510" y="3430" as="targetPoint" />
            <Array as="points">
              <mxPoint x="480" y="3445" />
            </Array>
          </mxGeometry>
        </mxCell>
        <mxCell id="GxfZMPhV7cBYfeG6iRfb-207" value="" style="endArrow=none;html=1;rounded=0;exitX=1;exitY=0.5;exitDx=0;exitDy=0;entryX=0;entryY=0.5;entryDx=0;entryDy=0;" edge="1" parent="1">
          <mxGeometry width="50" height="50" relative="1" as="geometry">
            <mxPoint x="360" y="3590" as="sourcePoint" />
            <mxPoint x="520" y="3565" as="targetPoint" />
            <Array as="points">
              <mxPoint x="480" y="3590" />
              <mxPoint x="480" y="3565" />
            </Array>
          </mxGeometry>
        </mxCell>
        <mxCell id="GxfZMPhV7cBYfeG6iRfb-208" value="" style="endArrow=none;html=1;rounded=0;entryX=0;entryY=0.5;entryDx=0;entryDy=0;" edge="1" parent="1">
          <mxGeometry width="50" height="50" relative="1" as="geometry">
            <mxPoint x="480" y="3590" as="sourcePoint" />
            <mxPoint x="520" y="3615" as="targetPoint" />
            <Array as="points">
              <mxPoint x="480" y="3615" />
            </Array>
          </mxGeometry>
        </mxCell>
        <mxCell id="GxfZMPhV7cBYfeG6iRfb-209" value="" style="endArrow=none;html=1;rounded=0;exitX=1;exitY=0.5;exitDx=0;exitDy=0;entryX=0;entryY=0.5;entryDx=0;entryDy=0;" edge="1" parent="1" source="GxfZMPhV7cBYfeG6iRfb-3" target="GxfZMPhV7cBYfeG6iRfb-73">
          <mxGeometry width="50" height="50" relative="1" as="geometry">
            <mxPoint x="220" y="800" as="sourcePoint" />
            <mxPoint x="270" y="750" as="targetPoint" />
          </mxGeometry>
        </mxCell>
        <mxCell id="GxfZMPhV7cBYfeG6iRfb-210" value="" style="endArrow=none;html=1;rounded=0;" edge="1" parent="1">
          <mxGeometry width="50" height="50" relative="1" as="geometry">
            <mxPoint x="440" y="730" as="sourcePoint" />
            <mxPoint x="440" y="830" as="targetPoint" />
          </mxGeometry>
        </mxCell>
        <mxCell id="GxfZMPhV7cBYfeG6iRfb-211" value="" style="endArrow=none;html=1;rounded=0;entryX=0;entryY=0.5;entryDx=0;entryDy=0;" edge="1" parent="1" target="GxfZMPhV7cBYfeG6iRfb-72">
          <mxGeometry width="50" height="50" relative="1" as="geometry">
            <mxPoint x="440" y="730" as="sourcePoint" />
            <mxPoint x="510" y="710" as="targetPoint" />
          </mxGeometry>
        </mxCell>
        <mxCell id="GxfZMPhV7cBYfeG6iRfb-212" value="" style="endArrow=none;html=1;rounded=0;entryX=0;entryY=0.5;entryDx=0;entryDy=0;" edge="1" parent="1" target="GxfZMPhV7cBYfeG6iRfb-74">
          <mxGeometry width="50" height="50" relative="1" as="geometry">
            <mxPoint x="440" y="830" as="sourcePoint" />
            <mxPoint x="500" y="810" as="targetPoint" />
          </mxGeometry>
        </mxCell>
        <mxCell id="GxfZMPhV7cBYfeG6iRfb-213" value="" style="endArrow=none;html=1;rounded=0;exitX=1;exitY=0.5;exitDx=0;exitDy=0;entryX=0;entryY=0.5;entryDx=0;entryDy=0;" edge="1" parent="1" source="GxfZMPhV7cBYfeG6iRfb-15" target="GxfZMPhV7cBYfeG6iRfb-97">
          <mxGeometry width="50" height="50" relative="1" as="geometry">
            <mxPoint x="160" y="1214.17" as="sourcePoint" />
            <mxPoint x="521" y="1219" as="targetPoint" />
            <Array as="points" />
          </mxGeometry>
        </mxCell>
        <mxCell id="GxfZMPhV7cBYfeG6iRfb-214" value="" style="endArrow=none;html=1;rounded=0;" edge="1" parent="1">
          <mxGeometry width="50" height="50" relative="1" as="geometry">
            <mxPoint x="440" y="1164.17" as="sourcePoint" />
            <mxPoint x="440" y="1264.17" as="targetPoint" />
          </mxGeometry>
        </mxCell>
        <mxCell id="GxfZMPhV7cBYfeG6iRfb-215" value="" style="endArrow=none;html=1;rounded=0;entryX=0;entryY=0.5;entryDx=0;entryDy=0;" edge="1" parent="1">
          <mxGeometry width="50" height="50" relative="1" as="geometry">
            <mxPoint x="440" y="1164.17" as="sourcePoint" />
            <mxPoint x="520" y="1164.17" as="targetPoint" />
          </mxGeometry>
        </mxCell>
        <mxCell id="GxfZMPhV7cBYfeG6iRfb-216" value="" style="endArrow=none;html=1;rounded=0;entryX=0;entryY=0.5;entryDx=0;entryDy=0;" edge="1" parent="1">
          <mxGeometry width="50" height="50" relative="1" as="geometry">
            <mxPoint x="440" y="1264.17" as="sourcePoint" />
            <mxPoint x="520" y="1264.17" as="targetPoint" />
          </mxGeometry>
        </mxCell>
        <mxCell id="GxfZMPhV7cBYfeG6iRfb-217" value="" style="endArrow=none;html=1;rounded=0;exitX=1;exitY=0.5;exitDx=0;exitDy=0;entryX=0;entryY=0.5;entryDx=0;entryDy=0;" edge="1" parent="1" source="GxfZMPhV7cBYfeG6iRfb-14" target="GxfZMPhV7cBYfeG6iRfb-91">
          <mxGeometry width="50" height="50" relative="1" as="geometry">
            <mxPoint x="360" y="1069.5" as="sourcePoint" />
            <mxPoint x="521" y="1068.5" as="targetPoint" />
            <Array as="points" />
          </mxGeometry>
        </mxCell>
        <mxCell id="GxfZMPhV7cBYfeG6iRfb-218" value="" style="endArrow=none;html=1;rounded=0;" edge="1" parent="1">
          <mxGeometry width="50" height="50" relative="1" as="geometry">
            <mxPoint x="440" y="1013.6700000000001" as="sourcePoint" />
            <mxPoint x="440" y="1113.67" as="targetPoint" />
          </mxGeometry>
        </mxCell>
        <mxCell id="GxfZMPhV7cBYfeG6iRfb-219" value="" style="endArrow=none;html=1;rounded=0;entryX=0;entryY=0.5;entryDx=0;entryDy=0;" edge="1" parent="1">
          <mxGeometry width="50" height="50" relative="1" as="geometry">
            <mxPoint x="440" y="1013.6700000000001" as="sourcePoint" />
            <mxPoint x="520" y="1013.6700000000001" as="targetPoint" />
          </mxGeometry>
        </mxCell>
        <mxCell id="GxfZMPhV7cBYfeG6iRfb-220" value="" style="endArrow=none;html=1;rounded=0;entryX=0;entryY=0.5;entryDx=0;entryDy=0;" edge="1" parent="1">
          <mxGeometry width="50" height="50" relative="1" as="geometry">
            <mxPoint x="440" y="1113.67" as="sourcePoint" />
            <mxPoint x="520" y="1113.67" as="targetPoint" />
          </mxGeometry>
        </mxCell>
        <mxCell id="GxfZMPhV7cBYfeG6iRfb-221" value="" style="endArrow=none;html=1;rounded=0;entryX=0;entryY=0.5;entryDx=0;entryDy=0;" edge="1" parent="1">
          <mxGeometry width="50" height="50" relative="1" as="geometry">
            <mxPoint x="360" y="2525" as="sourcePoint" />
            <mxPoint x="520" y="2524.62" as="targetPoint" />
            <Array as="points" />
          </mxGeometry>
        </mxCell>
        <mxCell id="GxfZMPhV7cBYfeG6iRfb-222" value="" style="endArrow=none;html=1;rounded=0;" edge="1" parent="1">
          <mxGeometry width="50" height="50" relative="1" as="geometry">
            <mxPoint x="440" y="2474.29" as="sourcePoint" />
            <mxPoint x="440" y="2574.29" as="targetPoint" />
          </mxGeometry>
        </mxCell>
        <mxCell id="GxfZMPhV7cBYfeG6iRfb-223" value="" style="endArrow=none;html=1;rounded=0;entryX=0;entryY=0.5;entryDx=0;entryDy=0;" edge="1" parent="1">
          <mxGeometry width="50" height="50" relative="1" as="geometry">
            <mxPoint x="440" y="2474.29" as="sourcePoint" />
            <mxPoint x="520" y="2474.29" as="targetPoint" />
          </mxGeometry>
        </mxCell>
        <mxCell id="GxfZMPhV7cBYfeG6iRfb-224" value="" style="endArrow=none;html=1;rounded=0;entryX=0;entryY=0.5;entryDx=0;entryDy=0;" edge="1" parent="1">
          <mxGeometry width="50" height="50" relative="1" as="geometry">
            <mxPoint x="440" y="2574.29" as="sourcePoint" />
            <mxPoint x="520" y="2574.29" as="targetPoint" />
          </mxGeometry>
        </mxCell>
        <mxCell id="GxfZMPhV7cBYfeG6iRfb-225" value="" style="endArrow=none;html=1;rounded=0;exitX=1;exitY=0.5;exitDx=0;exitDy=0;" edge="1" parent="1">
          <mxGeometry width="50" height="50" relative="1" as="geometry">
            <mxPoint x="160" y="3000" as="sourcePoint" />
            <mxPoint x="480" y="3000" as="targetPoint" />
          </mxGeometry>
        </mxCell>
        <mxCell id="GxfZMPhV7cBYfeG6iRfb-226" value="" style="endArrow=none;html=1;rounded=0;entryX=0;entryY=0.5;entryDx=0;entryDy=0;" edge="1" parent="1">
          <mxGeometry width="50" height="50" relative="1" as="geometry">
            <mxPoint x="480" y="3000" as="sourcePoint" />
            <mxPoint x="520" y="3195" as="targetPoint" />
            <Array as="points">
              <mxPoint x="480" y="3195" />
            </Array>
          </mxGeometry>
        </mxCell>
        <mxCell id="GxfZMPhV7cBYfeG6iRfb-227" value="" style="endArrow=none;html=1;rounded=0;entryX=0;entryY=0.5;entryDx=0;entryDy=0;" edge="1" parent="1">
          <mxGeometry width="50" height="50" relative="1" as="geometry">
            <mxPoint x="480" y="3145" as="sourcePoint" />
            <mxPoint x="520" y="3145" as="targetPoint" />
          </mxGeometry>
        </mxCell>
        <mxCell id="GxfZMPhV7cBYfeG6iRfb-228" value="" style="endArrow=none;html=1;rounded=0;entryX=0;entryY=0.5;entryDx=0;entryDy=0;" edge="1" parent="1">
          <mxGeometry width="50" height="50" relative="1" as="geometry">
            <mxPoint x="480" y="3095" as="sourcePoint" />
            <mxPoint x="520" y="3095" as="targetPoint" />
          </mxGeometry>
        </mxCell>
        <mxCell id="GxfZMPhV7cBYfeG6iRfb-229" value="" style="endArrow=none;html=1;rounded=0;entryX=0;entryY=0.5;entryDx=0;entryDy=0;" edge="1" parent="1">
          <mxGeometry width="50" height="50" relative="1" as="geometry">
            <mxPoint x="480" y="3045" as="sourcePoint" />
            <mxPoint x="520" y="3045" as="targetPoint" />
          </mxGeometry>
        </mxCell>
        <mxCell id="GxfZMPhV7cBYfeG6iRfb-230" value="" style="endArrow=none;html=1;rounded=0;exitX=1;exitY=0.5;exitDx=0;exitDy=0;entryX=0;entryY=0.5;entryDx=0;entryDy=0;" edge="1" parent="1">
          <mxGeometry width="50" height="50" relative="1" as="geometry">
            <mxPoint x="160" y="2779.29" as="sourcePoint" />
            <mxPoint x="520" y="2779.29" as="targetPoint" />
          </mxGeometry>
        </mxCell>
        <mxCell id="GxfZMPhV7cBYfeG6iRfb-231" value="" style="endArrow=none;html=1;rounded=0;" edge="1" parent="1">
          <mxGeometry width="50" height="50" relative="1" as="geometry">
            <mxPoint x="440" y="2729.29" as="sourcePoint" />
            <mxPoint x="440" y="2829.29" as="targetPoint" />
          </mxGeometry>
        </mxCell>
        <mxCell id="GxfZMPhV7cBYfeG6iRfb-232" value="" style="endArrow=none;html=1;rounded=0;entryX=0;entryY=0.5;entryDx=0;entryDy=0;" edge="1" parent="1">
          <mxGeometry width="50" height="50" relative="1" as="geometry">
            <mxPoint x="440" y="2729.29" as="sourcePoint" />
            <mxPoint x="520" y="2729.29" as="targetPoint" />
          </mxGeometry>
        </mxCell>
        <mxCell id="GxfZMPhV7cBYfeG6iRfb-233" value="" style="endArrow=none;html=1;rounded=0;entryX=0;entryY=0.5;entryDx=0;entryDy=0;" edge="1" parent="1">
          <mxGeometry width="50" height="50" relative="1" as="geometry">
            <mxPoint x="440" y="2829.29" as="sourcePoint" />
            <mxPoint x="520" y="2829.29" as="targetPoint" />
          </mxGeometry>
        </mxCell>
        <mxCell id="GxfZMPhV7cBYfeG6iRfb-234" value="" style="endArrow=none;html=1;rounded=0;exitX=1;exitY=0.5;exitDx=0;exitDy=0;" edge="1" parent="1" source="GxfZMPhV7cBYfeG6iRfb-16">
          <mxGeometry width="50" height="50" relative="1" as="geometry">
            <mxPoint x="430" y="1830" as="sourcePoint" />
            <mxPoint x="460" y="1825" as="targetPoint" />
          </mxGeometry>
        </mxCell>
        <mxCell id="GxfZMPhV7cBYfeG6iRfb-235" value="" style="endArrow=none;html=1;rounded=0;" edge="1" parent="1">
          <mxGeometry width="50" height="50" relative="1" as="geometry">
            <mxPoint x="460" y="2285" as="sourcePoint" />
            <mxPoint x="460" y="1380" as="targetPoint" />
          </mxGeometry>
        </mxCell>
        <mxCell id="GxfZMPhV7cBYfeG6iRfb-236" value="" style="endArrow=none;html=1;rounded=0;entryX=0;entryY=0.5;entryDx=0;entryDy=0;" edge="1" parent="1" target="GxfZMPhV7cBYfeG6iRfb-101">
          <mxGeometry width="50" height="50" relative="1" as="geometry">
            <mxPoint x="460" y="1380" as="sourcePoint" />
            <mxPoint x="560" y="1360" as="targetPoint" />
          </mxGeometry>
        </mxCell>
        <mxCell id="GxfZMPhV7cBYfeG6iRfb-237" value="" style="endArrow=none;html=1;rounded=0;entryX=0;entryY=0.5;entryDx=0;entryDy=0;" edge="1" parent="1" target="GxfZMPhV7cBYfeG6iRfb-102">
          <mxGeometry width="50" height="50" relative="1" as="geometry">
            <mxPoint x="460" y="1430" as="sourcePoint" />
            <mxPoint x="530" y="1390" as="targetPoint" />
          </mxGeometry>
        </mxCell>
        <mxCell id="GxfZMPhV7cBYfeG6iRfb-238" value="" style="endArrow=none;html=1;rounded=0;entryX=0;entryY=0.5;entryDx=0;entryDy=0;" edge="1" parent="1" target="GxfZMPhV7cBYfeG6iRfb-103">
          <mxGeometry width="50" height="50" relative="1" as="geometry">
            <mxPoint x="460" y="1495" as="sourcePoint" />
            <mxPoint x="530" y="1440" as="targetPoint" />
          </mxGeometry>
        </mxCell>
        <mxCell id="GxfZMPhV7cBYfeG6iRfb-239" value="" style="endArrow=none;html=1;rounded=0;entryX=0;entryY=0.5;entryDx=0;entryDy=0;" edge="1" parent="1" target="GxfZMPhV7cBYfeG6iRfb-104">
          <mxGeometry width="50" height="50" relative="1" as="geometry">
            <mxPoint x="460" y="1575" as="sourcePoint" />
            <mxPoint x="530" y="1505" as="targetPoint" />
          </mxGeometry>
        </mxCell>
        <mxCell id="GxfZMPhV7cBYfeG6iRfb-240" value="" style="endArrow=none;html=1;rounded=0;entryX=0;entryY=0.5;entryDx=0;entryDy=0;" edge="1" parent="1" target="GxfZMPhV7cBYfeG6iRfb-105">
          <mxGeometry width="50" height="50" relative="1" as="geometry">
            <mxPoint x="460" y="1625" as="sourcePoint" />
            <mxPoint x="530" y="1585" as="targetPoint" />
          </mxGeometry>
        </mxCell>
        <mxCell id="GxfZMPhV7cBYfeG6iRfb-241" value="" style="endArrow=none;html=1;rounded=0;entryX=0;entryY=0.5;entryDx=0;entryDy=0;" edge="1" parent="1" target="GxfZMPhV7cBYfeG6iRfb-106">
          <mxGeometry width="50" height="50" relative="1" as="geometry">
            <mxPoint x="460" y="1675" as="sourcePoint" />
            <mxPoint x="530" y="1635" as="targetPoint" />
          </mxGeometry>
        </mxCell>
        <mxCell id="GxfZMPhV7cBYfeG6iRfb-242" value="" style="endArrow=none;html=1;rounded=0;entryX=0;entryY=0.5;entryDx=0;entryDy=0;" edge="1" parent="1" target="GxfZMPhV7cBYfeG6iRfb-107">
          <mxGeometry width="50" height="50" relative="1" as="geometry">
            <mxPoint x="460" y="1775" as="sourcePoint" />
            <mxPoint x="540" y="1645" as="targetPoint" />
          </mxGeometry>
        </mxCell>
        <mxCell id="GxfZMPhV7cBYfeG6iRfb-243" value="" style="endArrow=none;html=1;rounded=0;entryX=0;entryY=0.5;entryDx=0;entryDy=0;" edge="1" parent="1" target="GxfZMPhV7cBYfeG6iRfb-108">
          <mxGeometry width="50" height="50" relative="1" as="geometry">
            <mxPoint x="460" y="1935" as="sourcePoint" />
            <mxPoint x="530" y="1785" as="targetPoint" />
          </mxGeometry>
        </mxCell>
        <mxCell id="GxfZMPhV7cBYfeG6iRfb-244" value="" style="endArrow=none;html=1;rounded=0;entryX=0;entryY=0.5;entryDx=0;entryDy=0;" edge="1" parent="1" target="GxfZMPhV7cBYfeG6iRfb-109">
          <mxGeometry width="50" height="50" relative="1" as="geometry">
            <mxPoint x="460" y="2095" as="sourcePoint" />
            <mxPoint x="530" y="1945" as="targetPoint" />
          </mxGeometry>
        </mxCell>
        <mxCell id="GxfZMPhV7cBYfeG6iRfb-245" value="" style="endArrow=none;html=1;rounded=0;entryX=0;entryY=0.5;entryDx=0;entryDy=0;" edge="1" parent="1" target="GxfZMPhV7cBYfeG6iRfb-110">
          <mxGeometry width="50" height="50" relative="1" as="geometry">
            <mxPoint x="460" y="2285" as="sourcePoint" />
            <mxPoint x="530" y="2105" as="targetPoint" />
          </mxGeometry>
        </mxCell>
        <mxCell id="GxfZMPhV7cBYfeG6iRfb-247" value="" style="endArrow=none;html=1;rounded=0;exitX=1;exitY=0.5;exitDx=0;exitDy=0;entryX=0;entryY=0.5;entryDx=0;entryDy=0;" edge="1" parent="1">
          <mxGeometry width="50" height="50" relative="1" as="geometry">
            <mxPoint x="640" y="1013.52" as="sourcePoint" />
            <mxPoint x="880" y="1013.52" as="targetPoint" />
          </mxGeometry>
        </mxCell>
        <mxCell id="GxfZMPhV7cBYfeG6iRfb-248" value="" style="endArrow=none;html=1;rounded=0;exitX=1;exitY=0.5;exitDx=0;exitDy=0;entryX=0;entryY=0.5;entryDx=0;entryDy=0;" edge="1" parent="1">
          <mxGeometry width="50" height="50" relative="1" as="geometry">
            <mxPoint x="640" y="1063.52" as="sourcePoint" />
            <mxPoint x="880" y="1063.52" as="targetPoint" />
          </mxGeometry>
        </mxCell>
        <mxCell id="GxfZMPhV7cBYfeG6iRfb-249" value="" style="endArrow=none;html=1;rounded=0;exitX=1;exitY=0.5;exitDx=0;exitDy=0;entryX=0;entryY=0.5;entryDx=0;entryDy=0;" edge="1" parent="1">
          <mxGeometry width="50" height="50" relative="1" as="geometry">
            <mxPoint x="640" y="1113.52" as="sourcePoint" />
            <mxPoint x="880" y="1113.52" as="targetPoint" />
          </mxGeometry>
        </mxCell>
        <mxCell id="GxfZMPhV7cBYfeG6iRfb-250" value="" style="endArrow=none;html=1;rounded=0;exitX=1;exitY=0.5;exitDx=0;exitDy=0;entryX=0;entryY=0.5;entryDx=0;entryDy=0;" edge="1" parent="1">
          <mxGeometry width="50" height="50" relative="1" as="geometry">
            <mxPoint x="640" y="1164.52" as="sourcePoint" />
            <mxPoint x="880" y="1164.52" as="targetPoint" />
          </mxGeometry>
        </mxCell>
        <mxCell id="GxfZMPhV7cBYfeG6iRfb-251" value="" style="endArrow=none;html=1;rounded=0;exitX=1;exitY=0.5;exitDx=0;exitDy=0;entryX=0;entryY=0.5;entryDx=0;entryDy=0;" edge="1" parent="1">
          <mxGeometry width="50" height="50" relative="1" as="geometry">
            <mxPoint x="640" y="1214.52" as="sourcePoint" />
            <mxPoint x="880" y="1214.52" as="targetPoint" />
          </mxGeometry>
        </mxCell>
        <mxCell id="GxfZMPhV7cBYfeG6iRfb-252" value="" style="endArrow=none;html=1;rounded=0;exitX=1;exitY=0.5;exitDx=0;exitDy=0;entryX=0;entryY=0.5;entryDx=0;entryDy=0;" edge="1" parent="1">
          <mxGeometry width="50" height="50" relative="1" as="geometry">
            <mxPoint x="640" y="1264.52" as="sourcePoint" />
            <mxPoint x="880" y="1264.52" as="targetPoint" />
          </mxGeometry>
        </mxCell>
        <mxCell id="GxfZMPhV7cBYfeG6iRfb-253" value="" style="endArrow=none;html=1;rounded=0;exitX=1;exitY=0.5;exitDx=0;exitDy=0;entryX=0;entryY=0.5;entryDx=0;entryDy=0;" edge="1" parent="1">
          <mxGeometry width="50" height="50" relative="1" as="geometry">
            <mxPoint x="640" y="1380" as="sourcePoint" />
            <mxPoint x="880" y="1380" as="targetPoint" />
          </mxGeometry>
        </mxCell>
        <mxCell id="GxfZMPhV7cBYfeG6iRfb-254" value="" style="endArrow=none;html=1;rounded=0;exitX=1;exitY=0.5;exitDx=0;exitDy=0;entryX=0;entryY=0.5;entryDx=0;entryDy=0;" edge="1" parent="1">
          <mxGeometry width="50" height="50" relative="1" as="geometry">
            <mxPoint x="640" y="1430" as="sourcePoint" />
            <mxPoint x="880" y="1430" as="targetPoint" />
          </mxGeometry>
        </mxCell>
        <mxCell id="GxfZMPhV7cBYfeG6iRfb-255" value="" style="endArrow=none;html=1;rounded=0;exitX=1;exitY=0.5;exitDx=0;exitDy=0;entryX=0;entryY=0.5;entryDx=0;entryDy=0;" edge="1" parent="1">
          <mxGeometry width="50" height="50" relative="1" as="geometry">
            <mxPoint x="640" y="2474.52" as="sourcePoint" />
            <mxPoint x="880" y="2474.52" as="targetPoint" />
          </mxGeometry>
        </mxCell>
        <mxCell id="GxfZMPhV7cBYfeG6iRfb-256" value="" style="endArrow=none;html=1;rounded=0;exitX=1;exitY=0.5;exitDx=0;exitDy=0;entryX=0;entryY=0.5;entryDx=0;entryDy=0;" edge="1" parent="1">
          <mxGeometry width="50" height="50" relative="1" as="geometry">
            <mxPoint x="640" y="2524.52" as="sourcePoint" />
            <mxPoint x="880" y="2524.52" as="targetPoint" />
          </mxGeometry>
        </mxCell>
        <mxCell id="GxfZMPhV7cBYfeG6iRfb-257" value="" style="endArrow=none;html=1;rounded=0;exitX=1;exitY=0.5;exitDx=0;exitDy=0;entryX=0;entryY=0.5;entryDx=0;entryDy=0;" edge="1" parent="1">
          <mxGeometry width="50" height="50" relative="1" as="geometry">
            <mxPoint x="640" y="2574.52" as="sourcePoint" />
            <mxPoint x="880" y="2574.52" as="targetPoint" />
          </mxGeometry>
        </mxCell>
        <mxCell id="GxfZMPhV7cBYfeG6iRfb-258" value="" style="endArrow=none;html=1;rounded=0;exitX=1;exitY=0.5;exitDx=0;exitDy=0;entryX=0;entryY=0.5;entryDx=0;entryDy=0;" edge="1" parent="1">
          <mxGeometry width="50" height="50" relative="1" as="geometry">
            <mxPoint x="640" y="2729.52" as="sourcePoint" />
            <mxPoint x="880" y="2729.52" as="targetPoint" />
          </mxGeometry>
        </mxCell>
        <mxCell id="GxfZMPhV7cBYfeG6iRfb-259" value="" style="endArrow=none;html=1;rounded=0;exitX=1;exitY=0.5;exitDx=0;exitDy=0;entryX=0;entryY=0.5;entryDx=0;entryDy=0;" edge="1" parent="1">
          <mxGeometry width="50" height="50" relative="1" as="geometry">
            <mxPoint x="640" y="2779.52" as="sourcePoint" />
            <mxPoint x="880" y="2779.52" as="targetPoint" />
          </mxGeometry>
        </mxCell>
        <mxCell id="GxfZMPhV7cBYfeG6iRfb-260" value="" style="endArrow=none;html=1;rounded=0;exitX=1;exitY=0.5;exitDx=0;exitDy=0;entryX=0;entryY=0.5;entryDx=0;entryDy=0;" edge="1" parent="1">
          <mxGeometry width="50" height="50" relative="1" as="geometry">
            <mxPoint x="640" y="2829.52" as="sourcePoint" />
            <mxPoint x="880" y="2829.52" as="targetPoint" />
          </mxGeometry>
        </mxCell>
        <mxCell id="GxfZMPhV7cBYfeG6iRfb-261" value="" style="endArrow=none;html=1;rounded=0;exitX=1;exitY=0.5;exitDx=0;exitDy=0;entryX=0;entryY=0.5;entryDx=0;entryDy=0;" edge="1" parent="1">
          <mxGeometry width="50" height="50" relative="1" as="geometry">
            <mxPoint x="640" y="3043.52" as="sourcePoint" />
            <mxPoint x="880" y="3043.52" as="targetPoint" />
          </mxGeometry>
        </mxCell>
        <mxCell id="GxfZMPhV7cBYfeG6iRfb-262" value="" style="endArrow=none;html=1;rounded=0;exitX=1;exitY=0.5;exitDx=0;exitDy=0;entryX=0;entryY=0.5;entryDx=0;entryDy=0;" edge="1" parent="1">
          <mxGeometry width="50" height="50" relative="1" as="geometry">
            <mxPoint x="640" y="3093.52" as="sourcePoint" />
            <mxPoint x="880" y="3093.52" as="targetPoint" />
          </mxGeometry>
        </mxCell>
        <mxCell id="GxfZMPhV7cBYfeG6iRfb-263" value="" style="endArrow=none;html=1;rounded=0;exitX=1;exitY=0.5;exitDx=0;exitDy=0;entryX=0;entryY=0.5;entryDx=0;entryDy=0;" edge="1" parent="1">
          <mxGeometry width="50" height="50" relative="1" as="geometry">
            <mxPoint x="640" y="3143.52" as="sourcePoint" />
            <mxPoint x="880" y="3143.52" as="targetPoint" />
          </mxGeometry>
        </mxCell>
        <mxCell id="GxfZMPhV7cBYfeG6iRfb-264" value="" style="endArrow=none;html=1;rounded=0;exitX=1;exitY=0.5;exitDx=0;exitDy=0;entryX=0;entryY=0.5;entryDx=0;entryDy=0;" edge="1" parent="1">
          <mxGeometry width="50" height="50" relative="1" as="geometry">
            <mxPoint x="640" y="3195.52" as="sourcePoint" />
            <mxPoint x="880" y="3195.52" as="targetPoint" />
          </mxGeometry>
        </mxCell>
        <mxCell id="GxfZMPhV7cBYfeG6iRfb-265" value="" style="endArrow=none;html=1;rounded=0;exitX=1;exitY=0.5;exitDx=0;exitDy=0;entryX=0;entryY=0.5;entryDx=0;entryDy=0;" edge="1" parent="1">
          <mxGeometry width="50" height="50" relative="1" as="geometry">
            <mxPoint x="640" y="3393.52" as="sourcePoint" />
            <mxPoint x="880" y="3393.52" as="targetPoint" />
          </mxGeometry>
        </mxCell>
        <mxCell id="GxfZMPhV7cBYfeG6iRfb-266" value="" style="endArrow=none;html=1;rounded=0;exitX=1;exitY=0.5;exitDx=0;exitDy=0;entryX=0;entryY=0.5;entryDx=0;entryDy=0;" edge="1" parent="1">
          <mxGeometry width="50" height="50" relative="1" as="geometry">
            <mxPoint x="640" y="3445.52" as="sourcePoint" />
            <mxPoint x="880" y="3445.52" as="targetPoint" />
          </mxGeometry>
        </mxCell>
        <mxCell id="GxfZMPhV7cBYfeG6iRfb-267" value="" style="endArrow=none;html=1;rounded=0;exitX=1;exitY=0.5;exitDx=0;exitDy=0;entryX=0;entryY=0.5;entryDx=0;entryDy=0;" edge="1" parent="1">
          <mxGeometry width="50" height="50" relative="1" as="geometry">
            <mxPoint x="640" y="3563.52" as="sourcePoint" />
            <mxPoint x="880" y="3563.52" as="targetPoint" />
          </mxGeometry>
        </mxCell>
        <mxCell id="GxfZMPhV7cBYfeG6iRfb-268" value="" style="endArrow=none;html=1;rounded=0;exitX=1;exitY=0.5;exitDx=0;exitDy=0;entryX=0;entryY=0.5;entryDx=0;entryDy=0;" edge="1" parent="1">
          <mxGeometry width="50" height="50" relative="1" as="geometry">
            <mxPoint x="640" y="3615.52" as="sourcePoint" />
            <mxPoint x="880" y="3615.52" as="targetPoint" />
          </mxGeometry>
        </mxCell>
        <mxCell id="GxfZMPhV7cBYfeG6iRfb-269" value="Правильный П.П." style="rounded=0;whiteSpace=wrap;html=1;" vertex="1" parent="1">
          <mxGeometry x="880" y="3275" width="120" height="30" as="geometry" />
        </mxCell>
        <mxCell id="GxfZMPhV7cBYfeG6iRfb-270" value="" style="endArrow=none;html=1;rounded=0;exitX=1;exitY=0.5;exitDx=0;exitDy=0;entryX=0;entryY=0.5;entryDx=0;entryDy=0;" edge="1" parent="1">
          <mxGeometry width="50" height="50" relative="1" as="geometry">
            <mxPoint x="640" y="3289.52" as="sourcePoint" />
            <mxPoint x="880" y="3289.52" as="targetPoint" />
          </mxGeometry>
        </mxCell>
        <mxCell id="GxfZMPhV7cBYfeG6iRfb-272" value="" style="endArrow=none;html=1;rounded=0;entryX=0;entryY=0.5;entryDx=0;entryDy=0;" edge="1" parent="1" target="GxfZMPhV7cBYfeG6iRfb-187">
          <mxGeometry width="50" height="50" relative="1" as="geometry">
            <mxPoint x="830" y="2045" as="sourcePoint" />
            <mxPoint x="830" y="2040" as="targetPoint" />
          </mxGeometry>
        </mxCell>
        <mxCell id="GxfZMPhV7cBYfeG6iRfb-273" value="" style="endArrow=none;html=1;rounded=0;entryX=0;entryY=0.5;entryDx=0;entryDy=0;" edge="1" parent="1">
          <mxGeometry width="50" height="50" relative="1" as="geometry">
            <mxPoint x="830" y="2144.77" as="sourcePoint" />
            <mxPoint x="880" y="2144.77" as="targetPoint" />
          </mxGeometry>
        </mxCell>
        <mxCell id="GxfZMPhV7cBYfeG6iRfb-274" value="" style="endArrow=none;html=1;rounded=0;entryX=0;entryY=0.5;entryDx=0;entryDy=0;" edge="1" parent="1">
          <mxGeometry width="50" height="50" relative="1" as="geometry">
            <mxPoint x="830" y="1984.77" as="sourcePoint" />
            <mxPoint x="880" y="1984.77" as="targetPoint" />
          </mxGeometry>
        </mxCell>
        <mxCell id="GxfZMPhV7cBYfeG6iRfb-275" value="" style="endArrow=none;html=1;rounded=0;entryX=0;entryY=0.5;entryDx=0;entryDy=0;" edge="1" parent="1">
          <mxGeometry width="50" height="50" relative="1" as="geometry">
            <mxPoint x="830" y="1884.77" as="sourcePoint" />
            <mxPoint x="880" y="1884.77" as="targetPoint" />
          </mxGeometry>
        </mxCell>
        <mxCell id="GxfZMPhV7cBYfeG6iRfb-276" value="" style="endArrow=none;html=1;rounded=0;entryX=0;entryY=0.5;entryDx=0;entryDy=0;" edge="1" parent="1">
          <mxGeometry width="50" height="50" relative="1" as="geometry">
            <mxPoint x="830" y="1824.77" as="sourcePoint" />
            <mxPoint x="880" y="1824.77" as="targetPoint" />
          </mxGeometry>
        </mxCell>
        <mxCell id="GxfZMPhV7cBYfeG6iRfb-277" value="" style="endArrow=none;html=1;rounded=0;entryX=0;entryY=0.5;entryDx=0;entryDy=0;" edge="1" parent="1">
          <mxGeometry width="50" height="50" relative="1" as="geometry">
            <mxPoint x="830" y="1724.77" as="sourcePoint" />
            <mxPoint x="880" y="1724.77" as="targetPoint" />
          </mxGeometry>
        </mxCell>
        <mxCell id="GxfZMPhV7cBYfeG6iRfb-278" value="" style="endArrow=none;html=1;rounded=0;entryX=0;entryY=0.5;entryDx=0;entryDy=0;" edge="1" parent="1">
          <mxGeometry width="50" height="50" relative="1" as="geometry">
            <mxPoint x="830" y="2234.58" as="sourcePoint" />
            <mxPoint x="880" y="2234.58" as="targetPoint" />
          </mxGeometry>
        </mxCell>
        <mxCell id="GxfZMPhV7cBYfeG6iRfb-279" value="" style="endArrow=none;html=1;rounded=0;entryX=0;entryY=0.5;entryDx=0;entryDy=0;" edge="1" parent="1">
          <mxGeometry width="50" height="50" relative="1" as="geometry">
            <mxPoint x="830" y="2334.58" as="sourcePoint" />
            <mxPoint x="880" y="2334.58" as="targetPoint" />
          </mxGeometry>
        </mxCell>
        <mxCell id="GxfZMPhV7cBYfeG6iRfb-280" value="" style="endArrow=none;html=1;rounded=0;" edge="1" parent="1">
          <mxGeometry width="50" height="50" relative="1" as="geometry">
            <mxPoint x="830" y="2145" as="sourcePoint" />
            <mxPoint x="830" y="2044" as="targetPoint" />
          </mxGeometry>
        </mxCell>
        <mxCell id="GxfZMPhV7cBYfeG6iRfb-281" value="" style="endArrow=none;html=1;rounded=0;" edge="1" parent="1">
          <mxGeometry width="50" height="50" relative="1" as="geometry">
            <mxPoint x="830" y="1985.5" as="sourcePoint" />
            <mxPoint x="830" y="1884.5" as="targetPoint" />
          </mxGeometry>
        </mxCell>
        <mxCell id="GxfZMPhV7cBYfeG6iRfb-282" value="" style="endArrow=none;html=1;rounded=0;" edge="1" parent="1">
          <mxGeometry width="50" height="50" relative="1" as="geometry">
            <mxPoint x="830" y="1825.5" as="sourcePoint" />
            <mxPoint x="830" y="1724.5" as="targetPoint" />
          </mxGeometry>
        </mxCell>
        <mxCell id="GxfZMPhV7cBYfeG6iRfb-283" value="" style="endArrow=none;html=1;rounded=0;fillColor=#ffe6cc;strokeColor=#d79b00;" edge="1" parent="1">
          <mxGeometry width="50" height="50" relative="1" as="geometry">
            <mxPoint y="3640" as="sourcePoint" />
            <mxPoint x="1120" y="3640" as="targetPoint" />
          </mxGeometry>
        </mxCell>
      </root>
    </mxGraphModel>
  </diagram>
</mxfile>
